*
%FSLAX26Y26*%
%MOIN*%
%ADD10C,0.007874*%
%IPPOS*%
%LNs109699l04a0.gko*%
%LPD*%
G75*
G54D10*
X11178901Y2284650D02*
X11174530Y2284159D01*
X11170377Y2282709D01*
X11166650Y2280373D01*
X11163534Y2277268D01*
X11161186Y2273549D01*
X11159722Y2269401D01*
X11159216Y2265032D01*
X11159693Y2260659D01*
X11161128Y2256502D01*
X11163451Y2252766D01*
X11166545Y2249640D01*
X11170257Y2247280D01*
X11174400Y2245802D01*
X11178767Y2245281D01*
X11178901Y2245280D01*
Y2245280D02*
X11493701D01*
Y0D01*
X393701D01*
Y3503940D01*
X11493701D01*
Y2284650D01*
X11178901D01*
X4155766Y940950D02*
Y1106300D01*
X4156258Y1112186D01*
X4157722Y1117909D01*
X4160115Y1123309D01*
X4163373Y1128237D01*
X4167403Y1132555D01*
X4172095Y1136143D01*
X4177318Y1138902D01*
X4182927Y1140756D01*
X4188766Y1141651D01*
X4194672Y1141564D01*
X4200482Y1140498D01*
X4206034Y1138481D01*
X4211174Y1135570D01*
X4215758Y1131845D01*
X4219661Y1127411D01*
X4222772Y1122390D01*
X4225006Y1116922D01*
X4226301Y1111159D01*
X4226636Y1106300D01*
Y940950D01*
X4226143Y935064D01*
X4224680Y929341D01*
X4222286Y923941D01*
X4219029Y919013D01*
X4214998Y914695D01*
X4210306Y911107D01*
X4205083Y908348D01*
X4199475Y906494D01*
X4193636Y905599D01*
X4187730Y905686D01*
X4181920Y906752D01*
X4176368Y908769D01*
X4171228Y911680D01*
X4166643Y915405D01*
X4162741Y919839D01*
X4159630Y924860D01*
X4157395Y930328D01*
X4156100Y936091D01*
X4155766Y940950D01*
Y1669290D02*
Y1795280D01*
X4156258Y1801166D01*
X4157722Y1806889D01*
X4160115Y1812289D01*
X4163373Y1817217D01*
X4167403Y1821535D01*
X4172095Y1825123D01*
X4177318Y1827882D01*
X4182927Y1829736D01*
X4188766Y1830631D01*
X4194672Y1830544D01*
X4200482Y1829478D01*
X4206034Y1827461D01*
X4211174Y1824550D01*
X4215758Y1820825D01*
X4219661Y1816391D01*
X4222772Y1811370D01*
X4225006Y1805902D01*
X4226301Y1800139D01*
X4226636Y1795280D01*
Y1669290D01*
X4226143Y1663404D01*
X4224680Y1657681D01*
X4222286Y1652281D01*
X4219029Y1647353D01*
X4214998Y1643035D01*
X4210306Y1639447D01*
X4205083Y1636688D01*
X4199475Y1634834D01*
X4193636Y1633939D01*
X4187730Y1634025D01*
X4181920Y1635092D01*
X4176368Y1637109D01*
X4171228Y1640020D01*
X4166643Y1643745D01*
X4162741Y1648179D01*
X4159630Y1653200D01*
X4157395Y1658668D01*
X4156100Y1664431D01*
X4155766Y1669290D01*
Y2305120D02*
Y2553150D01*
X4156258Y2559036D01*
X4157722Y2564759D01*
X4160115Y2570159D01*
X4163373Y2575087D01*
X4167403Y2579405D01*
X4172095Y2582993D01*
X4177318Y2585752D01*
X4182927Y2587606D01*
X4188766Y2588501D01*
X4194672Y2588414D01*
X4200482Y2587348D01*
X4206034Y2585331D01*
X4211174Y2582420D01*
X4215758Y2578695D01*
X4219661Y2574261D01*
X4222772Y2569240D01*
X4225006Y2563772D01*
X4226301Y2558009D01*
X4226636Y2553150D01*
Y2305120D01*
X4226143Y2299234D01*
X4224680Y2293511D01*
X4222286Y2288111D01*
X4219029Y2283183D01*
X4214998Y2278865D01*
X4210306Y2275277D01*
X4205083Y2272518D01*
X4199475Y2270664D01*
X4193636Y2269769D01*
X4187730Y2269856D01*
X4181920Y2270922D01*
X4176368Y2272939D01*
X4171228Y2275850D01*
X4166643Y2279575D01*
X4162741Y2284009D01*
X4159630Y2289030D01*
X4157395Y2294498D01*
X4156100Y2300261D01*
X4155766Y2305120D01*
X11178901Y5788590D02*
X11174530Y5788099D01*
X11170377Y5786649D01*
X11166650Y5784313D01*
X11163534Y5781208D01*
X11161186Y5777489D01*
X11159722Y5773341D01*
X11159216Y5768972D01*
X11159693Y5764599D01*
X11161128Y5760442D01*
X11163451Y5756706D01*
X11166545Y5753580D01*
X11170257Y5751219D01*
X11174400Y5749742D01*
X11178767Y5749220D01*
X11178901Y5749220D01*
Y5749220D02*
X11493701D01*
Y3503940D01*
X393701D01*
Y7007880D01*
X11493701D01*
Y5788590D01*
X11178901D01*
X4155766Y4444890D02*
Y4610240D01*
X4156258Y4616126D01*
X4157722Y4621849D01*
X4160115Y4627249D01*
X4163373Y4632177D01*
X4167403Y4636495D01*
X4172095Y4640083D01*
X4177318Y4642842D01*
X4182927Y4644695D01*
X4188766Y4645591D01*
X4194672Y4645504D01*
X4200482Y4644438D01*
X4206034Y4642421D01*
X4211174Y4639510D01*
X4215758Y4635785D01*
X4219661Y4631351D01*
X4222772Y4626330D01*
X4225006Y4620862D01*
X4226301Y4615099D01*
X4226636Y4610240D01*
Y4444890D01*
X4226143Y4439004D01*
X4224680Y4433281D01*
X4222286Y4427881D01*
X4219029Y4422953D01*
X4214998Y4418635D01*
X4210306Y4415047D01*
X4205083Y4412288D01*
X4199475Y4410434D01*
X4193636Y4409539D01*
X4187730Y4409625D01*
X4181920Y4410692D01*
X4176368Y4412709D01*
X4171228Y4415620D01*
X4166643Y4419345D01*
X4162741Y4423779D01*
X4159630Y4428800D01*
X4157395Y4434268D01*
X4156100Y4440031D01*
X4155766Y4444890D01*
Y5173230D02*
Y5299220D01*
X4156258Y5305106D01*
X4157722Y5310829D01*
X4160115Y5316229D01*
X4163373Y5321157D01*
X4167403Y5325475D01*
X4172095Y5329063D01*
X4177318Y5331822D01*
X4182927Y5333675D01*
X4188766Y5334571D01*
X4194672Y5334484D01*
X4200482Y5333418D01*
X4206034Y5331401D01*
X4211174Y5328490D01*
X4215758Y5324765D01*
X4219661Y5320331D01*
X4222772Y5315310D01*
X4225006Y5309842D01*
X4226301Y5304079D01*
X4226636Y5299220D01*
Y5173230D01*
X4226143Y5167344D01*
X4224680Y5161621D01*
X4222286Y5156221D01*
X4219029Y5151293D01*
X4214998Y5146975D01*
X4210306Y5143387D01*
X4205083Y5140628D01*
X4199475Y5138774D01*
X4193636Y5137879D01*
X4187730Y5137965D01*
X4181920Y5139032D01*
X4176368Y5141049D01*
X4171228Y5143960D01*
X4166643Y5147685D01*
X4162741Y5152119D01*
X4159630Y5157140D01*
X4157395Y5162608D01*
X4156100Y5168371D01*
X4155766Y5173230D01*
Y5809060D02*
Y6057090D01*
X4156258Y6062976D01*
X4157722Y6068699D01*
X4160115Y6074099D01*
X4163373Y6079027D01*
X4167403Y6083345D01*
X4172095Y6086933D01*
X4177318Y6089692D01*
X4182927Y6091545D01*
X4188766Y6092441D01*
X4194672Y6092354D01*
X4200482Y6091288D01*
X4206034Y6089271D01*
X4211174Y6086360D01*
X4215758Y6082635D01*
X4219661Y6078201D01*
X4222772Y6073180D01*
X4225006Y6067712D01*
X4226301Y6061949D01*
X4226636Y6057090D01*
Y5809060D01*
X4226143Y5803174D01*
X4224680Y5797451D01*
X4222286Y5792051D01*
X4219029Y5787123D01*
X4214998Y5782805D01*
X4210306Y5779217D01*
X4205083Y5776458D01*
X4199475Y5774604D01*
X4193636Y5773709D01*
X4187730Y5773795D01*
X4181920Y5774862D01*
X4176368Y5776879D01*
X4171228Y5779790D01*
X4166643Y5783515D01*
X4162741Y5787949D01*
X4159630Y5792970D01*
X4157395Y5798438D01*
X4156100Y5804201D01*
X4155766Y5809060D01*
X11178901Y9292530D02*
X11174530Y9292039D01*
X11170377Y9290589D01*
X11166650Y9288253D01*
X11163534Y9285148D01*
X11161186Y9281429D01*
X11159722Y9277281D01*
X11159216Y9272912D01*
X11159693Y9268539D01*
X11161128Y9264381D01*
X11163451Y9260646D01*
X11166545Y9257520D01*
X11170257Y9255159D01*
X11174400Y9253681D01*
X11178767Y9253160D01*
X11178901Y9253160D01*
Y9253160D02*
X11493701D01*
Y7007880D01*
X393701D01*
Y10511820D01*
X11493701D01*
Y9292530D01*
X11178901D01*
X4155766Y7948830D02*
Y8114180D01*
X4156258Y8120066D01*
X4157722Y8125789D01*
X4160115Y8131189D01*
X4163373Y8136117D01*
X4167403Y8140435D01*
X4172095Y8144023D01*
X4177318Y8146782D01*
X4182927Y8148635D01*
X4188766Y8149531D01*
X4194672Y8149444D01*
X4200482Y8148378D01*
X4206034Y8146361D01*
X4211174Y8143450D01*
X4215758Y8139725D01*
X4219661Y8135291D01*
X4222772Y8130270D01*
X4225006Y8124802D01*
X4226301Y8119039D01*
X4226636Y8114180D01*
Y7948830D01*
X4226143Y7942944D01*
X4224680Y7937221D01*
X4222286Y7931821D01*
X4219029Y7926893D01*
X4214998Y7922575D01*
X4210306Y7918987D01*
X4205083Y7916228D01*
X4199475Y7914374D01*
X4193636Y7913479D01*
X4187730Y7913565D01*
X4181920Y7914632D01*
X4176368Y7916649D01*
X4171228Y7919560D01*
X4166643Y7923285D01*
X4162741Y7927719D01*
X4159630Y7932740D01*
X4157395Y7938208D01*
X4156100Y7943971D01*
X4155766Y7948830D01*
Y8677170D02*
Y8803160D01*
X4156258Y8809046D01*
X4157722Y8814769D01*
X4160115Y8820169D01*
X4163373Y8825097D01*
X4167403Y8829415D01*
X4172095Y8833003D01*
X4177318Y8835762D01*
X4182927Y8837615D01*
X4188766Y8838511D01*
X4194672Y8838424D01*
X4200482Y8837358D01*
X4206034Y8835341D01*
X4211174Y8832430D01*
X4215758Y8828705D01*
X4219661Y8824271D01*
X4222772Y8819250D01*
X4225006Y8813782D01*
X4226301Y8808019D01*
X4226636Y8803160D01*
Y8677170D01*
X4226143Y8671283D01*
X4224680Y8665561D01*
X4222286Y8660161D01*
X4219029Y8655233D01*
X4214998Y8650915D01*
X4210306Y8647327D01*
X4205083Y8644568D01*
X4199475Y8642714D01*
X4193636Y8641819D01*
X4187730Y8641905D01*
X4181920Y8642972D01*
X4176368Y8644989D01*
X4171228Y8647900D01*
X4166643Y8651625D01*
X4162741Y8656059D01*
X4159630Y8661080D01*
X4157395Y8666548D01*
X4156100Y8672311D01*
X4155766Y8677170D01*
Y9313000D02*
Y9561030D01*
X4156258Y9566916D01*
X4157722Y9572639D01*
X4160115Y9578039D01*
X4163373Y9582967D01*
X4167403Y9587285D01*
X4172095Y9590873D01*
X4177318Y9593632D01*
X4182927Y9595485D01*
X4188766Y9596381D01*
X4194672Y9596294D01*
X4200482Y9595228D01*
X4206034Y9593211D01*
X4211174Y9590300D01*
X4215758Y9586575D01*
X4219661Y9582141D01*
X4222772Y9577120D01*
X4225006Y9571652D01*
X4226301Y9565889D01*
X4226636Y9561030D01*
Y9313000D01*
X4226143Y9307113D01*
X4224680Y9301391D01*
X4222286Y9295991D01*
X4219029Y9291063D01*
X4214998Y9286745D01*
X4210306Y9283157D01*
X4205083Y9280398D01*
X4199475Y9278544D01*
X4193636Y9277649D01*
X4187730Y9277735D01*
X4181920Y9278802D01*
X4176368Y9280819D01*
X4171228Y9283730D01*
X4166643Y9287455D01*
X4162741Y9291889D01*
X4159630Y9296910D01*
X4157395Y9302378D01*
X4156100Y9308141D01*
X4155766Y9313000D01*
X11178901Y12796470D02*
X11174530Y12795979D01*
X11170377Y12794529D01*
X11166650Y12792193D01*
X11163534Y12789088D01*
X11161186Y12785369D01*
X11159722Y12781221D01*
X11159216Y12776852D01*
X11159693Y12772479D01*
X11161128Y12768321D01*
X11163451Y12764586D01*
X11166545Y12761460D01*
X11170257Y12759099D01*
X11174400Y12757621D01*
X11178767Y12757100D01*
X11178901Y12757100D01*
Y12757100D02*
X11493701D01*
Y10511820D01*
X393701D01*
Y14015760D01*
X11493701D01*
Y12796470D01*
X11178901D01*
X4155766Y11452770D02*
Y11618120D01*
X4156258Y11624006D01*
X4157722Y11629729D01*
X4160115Y11635129D01*
X4163373Y11640057D01*
X4167403Y11644375D01*
X4172095Y11647963D01*
X4177318Y11650722D01*
X4182927Y11652575D01*
X4188766Y11653471D01*
X4194672Y11653384D01*
X4200482Y11652318D01*
X4206034Y11650301D01*
X4211174Y11647390D01*
X4215758Y11643665D01*
X4219661Y11639231D01*
X4222772Y11634210D01*
X4225006Y11628742D01*
X4226301Y11622979D01*
X4226636Y11618120D01*
Y11452770D01*
X4226143Y11446883D01*
X4224680Y11441161D01*
X4222286Y11435761D01*
X4219029Y11430833D01*
X4214998Y11426515D01*
X4210306Y11422927D01*
X4205083Y11420168D01*
X4199475Y11418314D01*
X4193636Y11417419D01*
X4187730Y11417505D01*
X4181920Y11418572D01*
X4176368Y11420589D01*
X4171228Y11423500D01*
X4166643Y11427225D01*
X4162741Y11431659D01*
X4159630Y11436680D01*
X4157395Y11442148D01*
X4156100Y11447911D01*
X4155766Y11452770D01*
Y12181110D02*
Y12307100D01*
X4156258Y12312986D01*
X4157722Y12318709D01*
X4160115Y12324109D01*
X4163373Y12329037D01*
X4167403Y12333355D01*
X4172095Y12336943D01*
X4177318Y12339702D01*
X4182927Y12341555D01*
X4188766Y12342451D01*
X4194672Y12342364D01*
X4200482Y12341298D01*
X4206034Y12339281D01*
X4211174Y12336370D01*
X4215758Y12332645D01*
X4219661Y12328211D01*
X4222772Y12323190D01*
X4225006Y12317722D01*
X4226301Y12311959D01*
X4226636Y12307100D01*
Y12181110D01*
X4226143Y12175223D01*
X4224680Y12169501D01*
X4222286Y12164100D01*
X4219029Y12159173D01*
X4214998Y12154855D01*
X4210306Y12151267D01*
X4205083Y12148507D01*
X4199475Y12146654D01*
X4193636Y12145759D01*
X4187730Y12145845D01*
X4181920Y12146912D01*
X4176368Y12148929D01*
X4171228Y12151840D01*
X4166643Y12155564D01*
X4162741Y12159999D01*
X4159630Y12165020D01*
X4157395Y12170488D01*
X4156100Y12176251D01*
X4155766Y12181110D01*
Y12816940D02*
Y13064970D01*
X4156258Y13070856D01*
X4157722Y13076579D01*
X4160115Y13081979D01*
X4163373Y13086907D01*
X4167403Y13091225D01*
X4172095Y13094813D01*
X4177318Y13097572D01*
X4182927Y13099425D01*
X4188766Y13100321D01*
X4194672Y13100234D01*
X4200482Y13099168D01*
X4206034Y13097151D01*
X4211174Y13094240D01*
X4215758Y13090515D01*
X4219661Y13086081D01*
X4222772Y13081060D01*
X4225006Y13075592D01*
X4226301Y13069829D01*
X4226636Y13064970D01*
Y12816940D01*
X4226143Y12811053D01*
X4224680Y12805331D01*
X4222286Y12799931D01*
X4219029Y12795003D01*
X4214998Y12790685D01*
X4210306Y12787097D01*
X4205083Y12784338D01*
X4199475Y12782484D01*
X4193636Y12781589D01*
X4187730Y12781675D01*
X4181920Y12782742D01*
X4176368Y12784759D01*
X4171228Y12787670D01*
X4166643Y12791394D01*
X4162741Y12795829D01*
X4159630Y12800850D01*
X4157395Y12806318D01*
X4156100Y12812081D01*
X4155766Y12816940D01*
X0Y0D02*
X11887402D01*
Y14015760D01*
X0D01*
Y0D01*
Y3503940D02*
X11887402D01*
X0Y7007880D02*
X11887402D01*
X0Y10511820D02*
X11887402D01*
X11493701Y0D02*
Y14015760D01*
X393701D02*
Y0D01*
X11493701Y2284650D02*
X11498072Y2284159D01*
X11502225Y2282709D01*
X11505952Y2280373D01*
X11509067Y2277268D01*
X11511416Y2273549D01*
X11512879Y2269401D01*
X11513386Y2265032D01*
X11512909Y2260659D01*
X11511473Y2256502D01*
X11509150Y2252766D01*
X11506056Y2249640D01*
X11502345Y2247280D01*
X11498202Y2245802D01*
X11493834Y2245281D01*
X11493701Y2245280D01*
Y5788590D02*
X11498072Y5788099D01*
X11502225Y5786649D01*
X11505952Y5784313D01*
X11509067Y5781208D01*
X11511416Y5777489D01*
X11512879Y5773341D01*
X11513386Y5768972D01*
X11512909Y5764599D01*
X11511473Y5760442D01*
X11509150Y5756706D01*
X11506056Y5753580D01*
X11502345Y5751219D01*
X11498202Y5749742D01*
X11493834Y5749220D01*
X11493701Y5749220D01*
Y9292530D02*
X11498072Y9292039D01*
X11502225Y9290589D01*
X11505952Y9288253D01*
X11509067Y9285148D01*
X11511416Y9281429D01*
X11512879Y9277281D01*
X11513386Y9272912D01*
X11512909Y9268539D01*
X11511473Y9264381D01*
X11509150Y9260646D01*
X11506056Y9257520D01*
X11502345Y9255159D01*
X11498202Y9253681D01*
X11493834Y9253160D01*
X11493701Y9253160D01*
Y12796470D02*
X11498072Y12795979D01*
X11502225Y12794529D01*
X11505952Y12792193D01*
X11509067Y12789088D01*
X11511416Y12785369D01*
X11512879Y12781221D01*
X11513386Y12776852D01*
X11512909Y12772479D01*
X11511473Y12768321D01*
X11509150Y12764586D01*
X11506056Y12761460D01*
X11502345Y12759099D01*
X11498202Y12757621D01*
X11493834Y12757100D01*
X11493701Y12757100D01*
M02*
