*
%FSLAX26Y26*%
%MOIN*%
%ADD10C,0.037402*%
%ADD11C,0.045276*%
%ADD12C,0.049213*%
%ADD13C,0.057087*%
%ADD14C,0.041339*%
%ADD15C,0.080709*%
%ADD16C,0.120079*%
%ADD17C,0.021654*%
%ADD18C,0.125984*%
%IPPOS*%
%LNs109699l04a0.drl*%
%LPD*%
G75*
G54D10*
X4256201Y1251870D03*
X3924411Y768430D03*
X3862991Y571580D03*
X563701Y2454370D03*
X953701Y2973740D03*
X1033701Y2899370D03*
X1324951Y2876870D03*
X4256201Y1499830D03*
X1923701Y3389370D03*
G54D11*
X9346061Y997840D03*
Y1194690D03*
Y1391540D03*
X9641341D03*
Y1194690D03*
Y997840D03*
X9946061D03*
Y1194690D03*
Y1391540D03*
X10241341D03*
Y1194690D03*
Y997840D03*
X5841341D03*
Y1194690D03*
Y1391540D03*
X5546061D03*
Y1194690D03*
Y997840D03*
X5241341D03*
Y1194690D03*
Y1391540D03*
X4946061D03*
Y1194690D03*
Y997840D03*
X3841341D03*
Y1194690D03*
Y1391540D03*
X3546061D03*
Y1194690D03*
Y997840D03*
X3241341D03*
Y1194690D03*
Y1391540D03*
X2946061D03*
Y1194690D03*
Y997840D03*
X2641341D03*
Y1194690D03*
Y1391540D03*
X2346061D03*
Y1194690D03*
Y997840D03*
X2041341D03*
Y1194690D03*
Y1391540D03*
X1746061D03*
Y1194690D03*
Y997840D03*
X652751Y1397640D03*
X534651D03*
Y1515750D03*
X652751D03*
Y2224410D03*
Y2342520D03*
X534651D03*
Y2224410D03*
X1746061Y1982090D03*
X2041341D03*
X2346061D03*
X2641341D03*
X2946061D03*
X3241341D03*
X3546061D03*
X3841341D03*
X4946061D03*
X5241341D03*
X5546061D03*
X5841341D03*
X9346061D03*
X9641341D03*
X9946061D03*
X10241341D03*
G54D12*
X5743701Y3060240D03*
Y3160240D03*
X5843701D03*
Y3060240D03*
X5943701D03*
Y3160240D03*
X6043701D03*
Y3060240D03*
X6143701D03*
Y3160240D03*
X6243701D03*
Y3060240D03*
X6343701D03*
Y3160240D03*
X6443701D03*
Y3060240D03*
X6543701D03*
Y3160240D03*
X5643701D03*
X5543701D03*
X5443701D03*
X5343701D03*
Y3060240D03*
X5443701D03*
X5543701D03*
X5643701D03*
G54D13*
X10531501Y95670D03*
X10731491D03*
Y395670D03*
X10531501D03*
Y489370D03*
Y789370D03*
X10640941Y1125980D03*
Y1322840D03*
X11040941D03*
Y1125980D03*
X11131501Y395670D03*
Y95670D03*
X10231491D03*
Y395670D03*
X9631501D03*
X9331501D03*
Y489370D03*
X9131501Y395670D03*
X8931491D03*
Y489370D03*
Y789370D03*
X9331501D03*
X9040941Y1125980D03*
Y1322840D03*
X9131501Y95670D03*
X9331501D03*
X9631501D03*
X8931491D03*
X8731491D03*
X8531501D03*
X8331491D03*
X8131491D03*
X7931501D03*
X7731491D03*
X7531501D03*
X7331491D03*
Y395670D03*
Y489370D03*
X7531501Y395670D03*
X7731491D03*
Y489370D03*
X7931501Y395670D03*
X8131491D03*
Y489370D03*
X8331491Y395670D03*
X8531501D03*
Y489370D03*
X8731491Y395670D03*
X8531501Y789370D03*
X8131491D03*
X7731491D03*
X7331491D03*
X7440941Y1125980D03*
Y1322840D03*
X7840941D03*
Y1125980D03*
X8240941D03*
Y1322840D03*
X8640941D03*
Y1125980D03*
X7040941D03*
Y1322840D03*
X6640941D03*
Y1125980D03*
X6240941D03*
Y1322840D03*
X6131491Y789370D03*
Y489370D03*
Y395670D03*
X6331491D03*
Y95670D03*
X6131491D03*
X5831491D03*
Y395670D03*
X6731491D03*
X6931501D03*
Y489370D03*
X7131491Y395670D03*
Y95670D03*
X6931501D03*
X6731491D03*
X6931501Y789370D03*
X4931501D03*
Y489370D03*
Y395670D03*
X4731491D03*
X4531501D03*
Y489370D03*
X4331501Y395670D03*
X4131491D03*
Y489370D03*
Y789370D03*
X4531501D03*
X4640941Y1125980D03*
Y1322840D03*
X4731491Y95670D03*
X4531501D03*
X4331501D03*
X4131491D03*
X4931501D03*
X5231491D03*
Y395670D03*
X3831501D03*
Y95670D03*
X3231501D03*
Y395670D03*
X2631491D03*
Y95670D03*
X2031491D03*
X1731491D03*
X1531501D03*
Y395670D03*
X1731491D03*
Y489370D03*
Y789370D03*
X1440941Y1125980D03*
Y1322840D03*
X1040941D03*
Y1125980D03*
X1131491Y395670D03*
Y95670D03*
X2031491Y395670D03*
X931501D03*
Y489370D03*
Y789370D03*
Y95670D03*
X1040941Y1519690D03*
X1440941D03*
Y1956690D03*
Y2104330D03*
X1040941D03*
Y1956690D03*
X4640941D03*
Y2104330D03*
Y1519690D03*
X6240941D03*
X6640941D03*
X7040941D03*
Y1956690D03*
Y2104330D03*
X6640941D03*
Y1956690D03*
X6240941D03*
Y2104330D03*
X7440941D03*
Y1956690D03*
X7840941D03*
Y2104330D03*
X8240941D03*
Y1956690D03*
X8640941D03*
Y2104330D03*
Y1519690D03*
X8240941D03*
X7840941D03*
X7440941D03*
X9040941D03*
Y1956690D03*
Y2104330D03*
X10640941D03*
Y1956690D03*
X11040941D03*
Y2104330D03*
Y1519690D03*
X10640941D03*
G54D14*
X416541Y1552760D03*
X770861D03*
Y2187400D03*
X416541D03*
G54D15*
X11393701Y257480D03*
X493701D03*
X11393701Y3246460D03*
X493701D03*
G54D16*
X11393701Y100000D03*
X493701D03*
X11393701Y3403940D03*
X493701D03*
G54D17*
X918701Y1858120D03*
X862451Y2276870D03*
X899951Y2414370D03*
X838701Y3034370D03*
X618701Y3014370D03*
X663701Y2964370D03*
X1394951Y2926870D03*
X1453701Y2864370D03*
X1543701Y2670620D03*
X1718701Y2533120D03*
X1812451Y2583120D03*
X1899951Y2426870D03*
X1839701Y2260140D03*
X1893701Y2128640D03*
X1887451Y1991140D03*
X1749951Y1859890D03*
X1593701Y1858120D03*
X1318701D03*
X1193701D03*
Y2145620D03*
X1262451Y2276870D03*
X1299951Y2414370D03*
X1293701Y2539370D03*
X1174951Y2370620D03*
X1081201Y2414370D03*
X1006201Y2339370D03*
X1406201D03*
X1481201Y2414370D03*
X1593701Y2320620D03*
X1599951Y2170620D03*
X1687451Y2203640D03*
X2131201Y2258120D03*
X2287451Y2203640D03*
X2439701Y2260140D03*
X2493701Y2128640D03*
X2487451Y1991140D03*
X2349951Y1859890D03*
X2148701Y1959370D03*
X2043701Y1859890D03*
X2223701Y2584370D03*
X2323701D03*
X2423701D03*
X2523701D03*
X2473701Y2674370D03*
X2373701D03*
X2273701D03*
X2173701D03*
X2218701Y2764370D03*
X2318701D03*
X2418701D03*
X2518701D03*
X1863701Y2983120D03*
X2618701Y2764370D03*
X2573701Y2674370D03*
X2623701Y2584370D03*
X2798701Y2414370D03*
X2855891D03*
X2918701D03*
X2983701D03*
X3038701D03*
X3133701Y2464370D03*
X3128701Y2624370D03*
X3333701Y2619370D03*
X3379351Y2640550D03*
X3333701Y2534370D03*
Y2464370D03*
X3433701Y2419370D03*
X3458851Y2492550D03*
X3558851Y2480050D03*
X3602601D03*
X3603701Y2419370D03*
X3653701Y2429370D03*
X3763701D03*
X3823701Y2384370D03*
X3849951Y2314370D03*
X3774951Y2315370D03*
X3693701Y2354370D03*
X3713701Y2509370D03*
X3733701Y2569370D03*
X3678701D03*
X3648701Y2629370D03*
X3521351Y2613300D03*
Y2542550D03*
X3543701Y2729370D03*
X3523701Y2789370D03*
X3490101Y2836300D03*
X3427601Y2773800D03*
X3273701Y2739370D03*
X3371351Y2911300D03*
X3365101Y2992550D03*
X3228701Y2969370D03*
X3089701Y2913370D03*
X3523701Y2939370D03*
X3521351Y3023800D03*
X3698701Y2984370D03*
X3723701Y2923940D03*
X3773701Y2924370D03*
X3828701D03*
X3878701D03*
X3853701Y2859370D03*
X3901201Y2826870D03*
X3988701Y2864370D03*
X3968701Y2944370D03*
X3922431Y3009370D03*
X3823701D03*
X3753701Y2869370D03*
Y2699370D03*
X3833021D03*
X3883701D03*
X3935831Y2700270D03*
X3908701Y2564370D03*
X3878701Y2524370D03*
X3908701Y2479370D03*
Y2424370D03*
X3937451Y2314370D03*
X4038701Y2369370D03*
Y2454370D03*
X3828701Y2559370D03*
X3608451Y2261910D03*
X3456201Y2203640D03*
X3387451Y2139370D03*
X3308701Y2169370D03*
X3331201Y2258120D03*
X3039701Y2260140D03*
X3093701Y2128640D03*
X3087451Y1991140D03*
X2949951Y1859890D03*
X2833701Y1964370D03*
X2787451Y2145620D03*
X2887451Y2203640D03*
X2731201Y2258120D03*
X2643701Y1859890D03*
X3243701D03*
X3549951D03*
X3843701D03*
X4758701Y1984370D03*
X4887451Y2139370D03*
Y2203640D03*
X4837451Y2339370D03*
X4778701Y2389370D03*
X4788701Y2449370D03*
X4853701Y2454370D03*
X5003701Y2459370D03*
Y2654370D03*
X5113701D03*
Y2564370D03*
X5078701Y2594370D03*
X5283701Y2609370D03*
X5318701Y2564370D03*
X5283701Y2514370D03*
X5318701Y2654370D03*
X5333701Y2794370D03*
X5128701D03*
X5003701Y2849370D03*
X4853701Y2844370D03*
X4763701D03*
Y2649370D03*
X4853701D03*
X4583701Y2619370D03*
X4528701Y2764370D03*
Y2839370D03*
X4473701Y2824370D03*
X4448701Y2864370D03*
X4388701D03*
X4328701D03*
X4283701Y2834370D03*
X4383701Y2799370D03*
X4433701Y3014370D03*
X4333701D03*
X4138701Y3029370D03*
X4148701Y2889370D03*
X4203701D03*
X4138701Y2714370D03*
X4362451Y2508120D03*
X4424951Y2383120D03*
X4449951Y2314370D03*
X4574951Y2276870D03*
X4581201Y2401870D03*
X4518701Y2444370D03*
X4718701Y2339370D03*
X5039701Y2260140D03*
X5156201Y2276870D03*
X5228701Y2329370D03*
X5433701D03*
X5487451Y2203640D03*
X5456201Y2070620D03*
X5331201Y2133120D03*
X5093701Y2128640D03*
X5087451Y1991140D03*
X4949951Y1859890D03*
X5243701D03*
X5549951D03*
X5687451Y1991140D03*
X5639701Y2260140D03*
X5638701Y2329370D03*
X5488701Y2529370D03*
X5523701Y2564370D03*
Y2654370D03*
X5538701Y2794370D03*
X4853701Y3039370D03*
X4763701D03*
X4618701Y3014370D03*
X5853701Y2799370D03*
Y2654370D03*
Y2579370D03*
Y2529370D03*
X5888701Y2609370D03*
X6098701Y2614370D03*
X6058701Y2654370D03*
Y2564370D03*
Y2504370D03*
X6208701Y2489370D03*
X6273701Y2494370D03*
X6333701D03*
X6418701D03*
X6513701D03*
X6568701D03*
Y2615370D03*
X6713701Y2494370D03*
X6803701D03*
X6868701D03*
X6983701Y2489370D03*
X7038701Y2494370D03*
X7081201Y2414370D03*
X7006201Y2339370D03*
X6862451Y2276870D03*
X6798701Y2304370D03*
X6787451Y2139370D03*
X6793701Y1858120D03*
X6918701D03*
X7193701D03*
X7218701Y2079370D03*
X7188701Y2284370D03*
X7228701Y2459370D03*
X7183701Y2494370D03*
X7188701Y2724370D03*
X7098701Y2684370D03*
X6968701Y2664370D03*
X6756201Y2439370D03*
X6681201Y2414370D03*
X6608701Y2334370D03*
X6462451Y2276870D03*
X6374951Y2314370D03*
X6399951Y2151870D03*
X6393701Y1858120D03*
X6518701D03*
X6118701D03*
X6071651Y2039370D03*
X5956201Y2151870D03*
X5943701Y2329370D03*
X6062451Y2276870D03*
X6206201Y2339370D03*
X6281201Y2414370D03*
X5738701Y2329370D03*
X5758701Y2259450D03*
X5693701Y2128640D03*
X5843701Y1859890D03*
X6038701Y2799370D03*
X7278701Y2724370D03*
X7458701D03*
X7438701Y2659370D03*
X7668701Y2684370D03*
X7688701Y2619370D03*
X7758701Y2534370D03*
X7881201Y2414370D03*
X7806201Y2339370D03*
X7987451Y2314370D03*
X8062451Y2276870D03*
X8206201Y2339370D03*
X8281201Y2414370D03*
X8243701Y2499370D03*
X8178701Y2624370D03*
X8118701D03*
X7963701D03*
X7878701Y2684370D03*
X7873701Y2774370D03*
Y2864370D03*
X7853701Y3009370D03*
X8078701Y2954370D03*
Y2864370D03*
X8293701D03*
Y2954370D03*
X8308701Y2789370D03*
X8383701Y2714370D03*
X8518701D03*
X8598701D03*
X8718701Y2654370D03*
X8813701Y2714370D03*
X8713701Y2954370D03*
X8498701D03*
X8523701Y2839370D03*
X8573701Y2539370D03*
X8644701D03*
X8612451Y2483120D03*
X8681201Y2414370D03*
X8606201Y2339370D03*
X8774951Y2326870D03*
X8462451Y2276870D03*
X8381201Y2314370D03*
X8448701Y2499370D03*
X8028701D03*
X7553701Y2444370D03*
X7528701Y2379370D03*
X7481201Y2414370D03*
X7406201Y2339370D03*
X7568701Y2308120D03*
X7618701Y2369370D03*
X7662451Y2276870D03*
X7262451D03*
X7273701Y2494370D03*
X7458701Y2894370D03*
X7648701Y2919370D03*
X7668701Y2774370D03*
X7718701Y1858120D03*
X7593701D03*
X7318701D03*
X7993701D03*
X8118701D03*
X8393701D03*
X8518701D03*
X8793701D03*
X8918701D03*
X9193701D03*
X9349951Y1859890D03*
X9487451Y1991140D03*
X9493701Y2128640D03*
X9439701Y2260140D03*
X9382701Y2307000D03*
X9456201Y2358120D03*
X9543701Y2295620D03*
X9649951Y2339370D03*
X9643701Y2420620D03*
X9518701Y2464370D03*
X9524951Y2564370D03*
X9412451Y2551870D03*
Y2470620D03*
X9295261Y2400310D03*
X9256201Y2314370D03*
X9287451Y2203640D03*
X9143701Y2383120D03*
X9081201Y2414370D03*
X9129951Y2499370D03*
X8906201Y2509890D03*
X8938701Y2559370D03*
X8906201Y2608120D03*
X9028701Y2714370D03*
X9093701D03*
X9143701Y2774370D03*
Y2954370D03*
X9238701Y2929370D03*
X9278701Y2684370D03*
X9274951Y2608120D03*
X9431201Y2639370D03*
X9668701Y2601870D03*
X9736701Y2506620D03*
X9909701Y2514370D03*
X9893701Y2414370D03*
X9982701Y2307000D03*
X10039701Y2260140D03*
X10093701Y2128640D03*
X10087451Y1991140D03*
X9949951Y1859890D03*
X10243701D03*
X10368701Y2208120D03*
X10331201Y2420620D03*
X10216701Y2454370D03*
X10227701Y2562370D03*
X10112451Y2651870D03*
X10099951Y2451870D03*
X9852701Y2604370D03*
X9887451Y2203640D03*
X9643701Y1859890D03*
X9006201Y2339370D03*
X8862451Y2276870D03*
X8928701Y2954370D03*
X10412451Y2633120D03*
X10543701Y2670620D03*
X10706201Y2595620D03*
X10731201Y2489370D03*
X10681201Y2414370D03*
X10606201Y2339370D03*
X10499951Y2414370D03*
X10462451Y2276870D03*
X10471651Y2039370D03*
X10518701Y1858120D03*
X10793701D03*
X10918701D03*
X10871651Y2039370D03*
X10768701Y2183120D03*
X10862451Y2276870D03*
X10899951Y2414370D03*
X10949951Y2489370D03*
X11128701D03*
X11081201Y2414370D03*
X11131201Y2351870D03*
X11006201Y2339370D03*
X11124951Y2189370D03*
X11203701Y2079370D03*
X11428701Y2074370D03*
X11433701Y1904370D03*
X11193701Y1858120D03*
X11137451Y2626870D03*
X11149951Y2764370D03*
X10999951Y2676870D03*
X10924951Y2708120D03*
X10849951Y2676870D03*
X11206201Y2989370D03*
X11324951Y2983120D03*
X11456201Y2870620D03*
X11443701Y3064370D03*
X11233701D03*
X11223701Y3260000D03*
X11028701Y3334370D03*
X10818701Y3249370D03*
X10718701D03*
X10618701D03*
X10518701D03*
X10418701D03*
X10473701Y3159370D03*
X10573701D03*
X10673701D03*
X10773701D03*
X10823701Y3069370D03*
X10723701D03*
X10623701D03*
X10523701D03*
X10423701D03*
X10373701Y3159370D03*
X10223701Y3164370D03*
X10123701D03*
X10023701D03*
X9923701D03*
X9823701D03*
X9868701Y3254370D03*
X9968701D03*
X10068701D03*
X10168701D03*
X10268701D03*
X10273701Y3074370D03*
X10173701D03*
X10073701D03*
X9973701D03*
X9873701D03*
X9143701Y3044370D03*
X9123701Y3189370D03*
X8908701D03*
X8928701Y3044370D03*
X8713701D03*
X8693701Y3189370D03*
X8478701D03*
X8498701Y3044370D03*
X8273701Y3099370D03*
X8058701D03*
X5003701Y3044370D03*
Y3234370D03*
X4853701D03*
X4763701D03*
X4528701Y3149370D03*
X4253701Y3164370D03*
Y3094370D03*
X4583701Y3419370D03*
X4093701Y3174370D03*
X3793701D03*
X3708701Y3234370D03*
X3648701D03*
Y3169370D03*
Y3119370D03*
X3590101Y3061300D03*
X3508851Y3136300D03*
X3503701Y3219370D03*
X3423701Y3239370D03*
Y3317180D03*
X3583851Y3242550D03*
X3758701Y3309370D03*
X3868701Y3329370D03*
X3893701Y3289370D03*
X3333701Y3099370D03*
X3193701Y3094370D03*
X2598701Y3169370D03*
X2593701Y3349370D03*
X2493701D03*
X2393701D03*
X2293701D03*
X2193701D03*
X2148701Y3259370D03*
X2248701D03*
X2348701D03*
X2448701D03*
X2548701D03*
X2498701Y3169370D03*
X2398701D03*
X2298701D03*
X2198701D03*
X1763701Y3249370D03*
X1157451Y3320000D03*
Y3401250D03*
X907451Y3351250D03*
X898701Y3235000D03*
X818701Y3184370D03*
X737861Y3190210D03*
X667301Y3065770D03*
X668701Y3349370D03*
X653701Y3404370D03*
G54D10*
X4256201Y4755810D03*
X3924411Y4272370D03*
X3862991Y4075520D03*
X563701Y5958310D03*
X953701Y6477680D03*
X1033701Y6403310D03*
X1324951Y6380810D03*
X4256201Y5003770D03*
X1923701Y6893310D03*
G54D11*
X9346061Y4501780D03*
Y4698630D03*
Y4895480D03*
X9641341D03*
Y4698630D03*
Y4501780D03*
X9946061D03*
Y4698630D03*
Y4895480D03*
X10241341D03*
Y4698630D03*
Y4501780D03*
X5841341D03*
Y4698630D03*
Y4895480D03*
X5546061D03*
Y4698630D03*
Y4501780D03*
X5241341D03*
Y4698630D03*
Y4895480D03*
X4946061D03*
Y4698630D03*
Y4501780D03*
X3841341D03*
Y4698630D03*
Y4895480D03*
X3546061D03*
Y4698630D03*
Y4501780D03*
X3241341D03*
Y4698630D03*
Y4895480D03*
X2946061D03*
Y4698630D03*
Y4501780D03*
X2641341D03*
Y4698630D03*
Y4895480D03*
X2346061D03*
Y4698630D03*
Y4501780D03*
X2041341D03*
Y4698630D03*
Y4895480D03*
X1746061D03*
Y4698630D03*
Y4501780D03*
X652751Y4901580D03*
X534651D03*
Y5019690D03*
X652751D03*
Y5728350D03*
Y5846460D03*
X534651D03*
Y5728350D03*
X1746061Y5486030D03*
X2041341D03*
X2346061D03*
X2641341D03*
X2946061D03*
X3241341D03*
X3546061D03*
X3841341D03*
X4946061D03*
X5241341D03*
X5546061D03*
X5841341D03*
X9346061D03*
X9641341D03*
X9946061D03*
X10241341D03*
G54D12*
X5743701Y6564180D03*
Y6664180D03*
X5843701D03*
Y6564180D03*
X5943701D03*
Y6664180D03*
X6043701D03*
Y6564180D03*
X6143701D03*
Y6664180D03*
X6243701D03*
Y6564180D03*
X6343701D03*
Y6664180D03*
X6443701D03*
Y6564180D03*
X6543701D03*
Y6664180D03*
X5643701D03*
X5543701D03*
X5443701D03*
X5343701D03*
Y6564180D03*
X5443701D03*
X5543701D03*
X5643701D03*
G54D13*
X10531501Y3599610D03*
X10731491D03*
Y3899610D03*
X10531501D03*
Y3993310D03*
Y4293310D03*
X10640941Y4629920D03*
Y4826780D03*
X11040941D03*
Y4629920D03*
X11131501Y3899610D03*
Y3599610D03*
X10231491D03*
Y3899610D03*
X9631501D03*
X9331501D03*
Y3993310D03*
X9131501Y3899610D03*
X8931491D03*
Y3993310D03*
Y4293310D03*
X9331501D03*
X9040941Y4629920D03*
Y4826780D03*
X9131501Y3599610D03*
X9331501D03*
X9631501D03*
X8931491D03*
X8731491D03*
X8531501D03*
X8331491D03*
X8131491D03*
X7931501D03*
X7731491D03*
X7531501D03*
X7331491D03*
Y3899610D03*
Y3993310D03*
X7531501Y3899610D03*
X7731491D03*
Y3993310D03*
X7931501Y3899610D03*
X8131491D03*
Y3993310D03*
X8331491Y3899610D03*
X8531501D03*
Y3993310D03*
X8731491Y3899610D03*
X8531501Y4293310D03*
X8131491D03*
X7731491D03*
X7331491D03*
X7440941Y4629920D03*
Y4826780D03*
X7840941D03*
Y4629920D03*
X8240941D03*
Y4826780D03*
X8640941D03*
Y4629920D03*
X7040941D03*
Y4826780D03*
X6640941D03*
Y4629920D03*
X6240941D03*
Y4826780D03*
X6131491Y4293310D03*
Y3993310D03*
Y3899610D03*
X6331491D03*
Y3599610D03*
X6131491D03*
X5831491D03*
Y3899610D03*
X6731491D03*
X6931501D03*
Y3993310D03*
X7131491Y3899610D03*
Y3599610D03*
X6931501D03*
X6731491D03*
X6931501Y4293310D03*
X4931501D03*
Y3993310D03*
Y3899610D03*
X4731491D03*
X4531501D03*
Y3993310D03*
X4331501Y3899610D03*
X4131491D03*
Y3993310D03*
Y4293310D03*
X4531501D03*
X4640941Y4629920D03*
Y4826780D03*
X4731491Y3599610D03*
X4531501D03*
X4331501D03*
X4131491D03*
X4931501D03*
X5231491D03*
Y3899610D03*
X3831501D03*
Y3599610D03*
X3231501D03*
Y3899610D03*
X2631491D03*
Y3599610D03*
X2031491D03*
X1731491D03*
X1531501D03*
Y3899610D03*
X1731491D03*
Y3993310D03*
Y4293310D03*
X1440941Y4629920D03*
Y4826780D03*
X1040941D03*
Y4629920D03*
X1131491Y3899610D03*
Y3599610D03*
X2031491Y3899610D03*
X931501D03*
Y3993310D03*
Y4293310D03*
Y3599610D03*
X1040941Y5023630D03*
X1440941D03*
Y5460630D03*
Y5608270D03*
X1040941D03*
Y5460630D03*
X4640941D03*
Y5608270D03*
Y5023630D03*
X6240941D03*
X6640941D03*
X7040941D03*
Y5460630D03*
Y5608270D03*
X6640941D03*
Y5460630D03*
X6240941D03*
Y5608270D03*
X7440941D03*
Y5460630D03*
X7840941D03*
Y5608270D03*
X8240941D03*
Y5460630D03*
X8640941D03*
Y5608270D03*
Y5023630D03*
X8240941D03*
X7840941D03*
X7440941D03*
X9040941D03*
Y5460630D03*
Y5608270D03*
X10640941D03*
Y5460630D03*
X11040941D03*
Y5608270D03*
Y5023630D03*
X10640941D03*
G54D14*
X416541Y5056700D03*
X770861D03*
Y5691340D03*
X416541D03*
G54D15*
X11393701Y3761420D03*
X493701D03*
X11393701Y6750400D03*
X493701D03*
G54D16*
X11393701Y3603940D03*
X493701D03*
X11393701Y6907880D03*
X493701D03*
G54D17*
X918701Y5362060D03*
X862451Y5780810D03*
X899951Y5918310D03*
X838701Y6538310D03*
X618701Y6518310D03*
X663701Y6468310D03*
X1394951Y6430810D03*
X1453701Y6368310D03*
X1543701Y6174560D03*
X1718701Y6037060D03*
X1812451Y6087060D03*
X1899951Y5930810D03*
X1839701Y5764080D03*
X1893701Y5632580D03*
X1887451Y5495080D03*
X1749951Y5363830D03*
X1593701Y5362060D03*
X1318701D03*
X1193701D03*
Y5649560D03*
X1262451Y5780810D03*
X1299951Y5918310D03*
X1293701Y6043310D03*
X1174951Y5874560D03*
X1081201Y5918310D03*
X1006201Y5843310D03*
X1406201D03*
X1481201Y5918310D03*
X1593701Y5824560D03*
X1599951Y5674560D03*
X1687451Y5707580D03*
X2131201Y5762060D03*
X2287451Y5707580D03*
X2439701Y5764080D03*
X2493701Y5632580D03*
X2487451Y5495080D03*
X2349951Y5363830D03*
X2148701Y5463310D03*
X2043701Y5363830D03*
X2223701Y6088310D03*
X2323701D03*
X2423701D03*
X2523701D03*
X2473701Y6178310D03*
X2373701D03*
X2273701D03*
X2173701D03*
X2218701Y6268310D03*
X2318701D03*
X2418701D03*
X2518701D03*
X1863701Y6487060D03*
X2618701Y6268310D03*
X2573701Y6178310D03*
X2623701Y6088310D03*
X2798701Y5918310D03*
X2855891D03*
X2918701D03*
X2983701D03*
X3038701D03*
X3133701Y5968310D03*
X3128701Y6128310D03*
X3333701Y6123310D03*
X3379351Y6144490D03*
X3333701Y6038310D03*
Y5968310D03*
X3433701Y5923310D03*
X3458851Y5996490D03*
X3558851Y5983990D03*
X3602601D03*
X3603701Y5923310D03*
X3653701Y5933310D03*
X3763701D03*
X3823701Y5888310D03*
X3849951Y5818310D03*
X3774951Y5819310D03*
X3693701Y5858310D03*
X3713701Y6013310D03*
X3733701Y6073310D03*
X3678701D03*
X3648701Y6133310D03*
X3521351Y6117240D03*
Y6046490D03*
X3543701Y6233310D03*
X3523701Y6293310D03*
X3490101Y6340240D03*
X3427601Y6277740D03*
X3273701Y6243310D03*
X3371351Y6415240D03*
X3365101Y6496490D03*
X3228701Y6473310D03*
X3089701Y6417310D03*
X3523701Y6443310D03*
X3521351Y6527740D03*
X3698701Y6488310D03*
X3723701Y6427880D03*
X3773701Y6428310D03*
X3828701D03*
X3878701D03*
X3853701Y6363310D03*
X3901201Y6330810D03*
X3988701Y6368310D03*
X3968701Y6448310D03*
X3922431Y6513310D03*
X3823701D03*
X3753701Y6373310D03*
Y6203310D03*
X3833021D03*
X3883701D03*
X3935831Y6204210D03*
X3908701Y6068310D03*
X3878701Y6028310D03*
X3908701Y5983310D03*
Y5928310D03*
X3937451Y5818310D03*
X4038701Y5873310D03*
Y5958310D03*
X3828701Y6063310D03*
X3608451Y5765850D03*
X3456201Y5707580D03*
X3387451Y5643310D03*
X3308701Y5673310D03*
X3331201Y5762060D03*
X3039701Y5764080D03*
X3093701Y5632580D03*
X3087451Y5495080D03*
X2949951Y5363830D03*
X2833701Y5468310D03*
X2787451Y5649560D03*
X2887451Y5707580D03*
X2731201Y5762060D03*
X2643701Y5363830D03*
X3243701D03*
X3549951D03*
X3843701D03*
X4758701Y5488310D03*
X4887451Y5643310D03*
Y5707580D03*
X4837451Y5843310D03*
X4778701Y5893310D03*
X4788701Y5953310D03*
X4853701Y5958310D03*
X5003701Y5963310D03*
Y6158310D03*
X5113701D03*
Y6068310D03*
X5078701Y6098310D03*
X5283701Y6113310D03*
X5318701Y6068310D03*
X5283701Y6018310D03*
X5318701Y6158310D03*
X5333701Y6298310D03*
X5128701D03*
X5003701Y6353310D03*
X4853701Y6348310D03*
X4763701D03*
Y6153310D03*
X4853701D03*
X4583701Y6123310D03*
X4528701Y6268310D03*
Y6343310D03*
X4473701Y6328310D03*
X4448701Y6368310D03*
X4388701D03*
X4328701D03*
X4283701Y6338310D03*
X4383701Y6303310D03*
X4433701Y6518310D03*
X4333701D03*
X4138701Y6533310D03*
X4148701Y6393310D03*
X4203701D03*
X4138701Y6218310D03*
X4362451Y6012060D03*
X4424951Y5887060D03*
X4449951Y5818310D03*
X4574951Y5780810D03*
X4581201Y5905810D03*
X4518701Y5948310D03*
X4718701Y5843310D03*
X5039701Y5764080D03*
X5156201Y5780810D03*
X5228701Y5833310D03*
X5433701D03*
X5487451Y5707580D03*
X5456201Y5574560D03*
X5331201Y5637060D03*
X5093701Y5632580D03*
X5087451Y5495080D03*
X4949951Y5363830D03*
X5243701D03*
X5549951D03*
X5687451Y5495080D03*
X5639701Y5764080D03*
X5638701Y5833310D03*
X5488701Y6033310D03*
X5523701Y6068310D03*
Y6158310D03*
X5538701Y6298310D03*
X4853701Y6543310D03*
X4763701D03*
X4618701Y6518310D03*
X5853701Y6303310D03*
Y6158310D03*
Y6083310D03*
Y6033310D03*
X5888701Y6113310D03*
X6098701Y6118310D03*
X6058701Y6158310D03*
Y6068310D03*
Y6008310D03*
X6208701Y5993310D03*
X6273701Y5998310D03*
X6333701D03*
X6418701D03*
X6513701D03*
X6568701D03*
Y6119310D03*
X6713701Y5998310D03*
X6803701D03*
X6868701D03*
X6983701Y5993310D03*
X7038701Y5998310D03*
X7081201Y5918310D03*
X7006201Y5843310D03*
X6862451Y5780810D03*
X6798701Y5808310D03*
X6787451Y5643310D03*
X6793701Y5362060D03*
X6918701D03*
X7193701D03*
X7218701Y5583310D03*
X7188701Y5788310D03*
X7228701Y5963310D03*
X7183701Y5998310D03*
X7188701Y6228310D03*
X7098701Y6188310D03*
X6968701Y6168310D03*
X6756201Y5943310D03*
X6681201Y5918310D03*
X6608701Y5838310D03*
X6462451Y5780810D03*
X6374951Y5818310D03*
X6399951Y5655810D03*
X6393701Y5362060D03*
X6518701D03*
X6118701D03*
X6071651Y5543310D03*
X5956201Y5655810D03*
X5943701Y5833310D03*
X6062451Y5780810D03*
X6206201Y5843310D03*
X6281201Y5918310D03*
X5738701Y5833310D03*
X5758701Y5763390D03*
X5693701Y5632580D03*
X5843701Y5363830D03*
X6038701Y6303310D03*
X7278701Y6228310D03*
X7458701D03*
X7438701Y6163310D03*
X7668701Y6188310D03*
X7688701Y6123310D03*
X7758701Y6038310D03*
X7881201Y5918310D03*
X7806201Y5843310D03*
X7987451Y5818310D03*
X8062451Y5780810D03*
X8206201Y5843310D03*
X8281201Y5918310D03*
X8243701Y6003310D03*
X8178701Y6128310D03*
X8118701D03*
X7963701D03*
X7878701Y6188310D03*
X7873701Y6278310D03*
Y6368310D03*
X7853701Y6513310D03*
X8078701Y6458310D03*
Y6368310D03*
X8293701D03*
Y6458310D03*
X8308701Y6293310D03*
X8383701Y6218310D03*
X8518701D03*
X8598701D03*
X8718701Y6158310D03*
X8813701Y6218310D03*
X8713701Y6458310D03*
X8498701D03*
X8523701Y6343310D03*
X8573701Y6043310D03*
X8644701D03*
X8612451Y5987060D03*
X8681201Y5918310D03*
X8606201Y5843310D03*
X8774951Y5830810D03*
X8462451Y5780810D03*
X8381201Y5818310D03*
X8448701Y6003310D03*
X8028701D03*
X7553701Y5948310D03*
X7528701Y5883310D03*
X7481201Y5918310D03*
X7406201Y5843310D03*
X7568701Y5812060D03*
X7618701Y5873310D03*
X7662451Y5780810D03*
X7262451D03*
X7273701Y5998310D03*
X7458701Y6398310D03*
X7648701Y6423310D03*
X7668701Y6278310D03*
X7718701Y5362060D03*
X7593701D03*
X7318701D03*
X7993701D03*
X8118701D03*
X8393701D03*
X8518701D03*
X8793701D03*
X8918701D03*
X9193701D03*
X9349951Y5363830D03*
X9487451Y5495080D03*
X9493701Y5632580D03*
X9439701Y5764080D03*
X9382701Y5810940D03*
X9456201Y5862060D03*
X9543701Y5799560D03*
X9649951Y5843310D03*
X9643701Y5924560D03*
X9518701Y5968310D03*
X9524951Y6068310D03*
X9412451Y6055810D03*
Y5974560D03*
X9295261Y5904250D03*
X9256201Y5818310D03*
X9287451Y5707580D03*
X9143701Y5887060D03*
X9081201Y5918310D03*
X9129951Y6003310D03*
X8906201Y6013830D03*
X8938701Y6063310D03*
X8906201Y6112060D03*
X9028701Y6218310D03*
X9093701D03*
X9143701Y6278310D03*
Y6458310D03*
X9238701Y6433310D03*
X9278701Y6188310D03*
X9274951Y6112060D03*
X9431201Y6143310D03*
X9668701Y6105810D03*
X9736701Y6010560D03*
X9909701Y6018310D03*
X9893701Y5918310D03*
X9982701Y5810940D03*
X10039701Y5764080D03*
X10093701Y5632580D03*
X10087451Y5495080D03*
X9949951Y5363830D03*
X10243701D03*
X10368701Y5712060D03*
X10331201Y5924560D03*
X10216701Y5958310D03*
X10227701Y6066310D03*
X10112451Y6155810D03*
X10099951Y5955810D03*
X9852701Y6108310D03*
X9887451Y5707580D03*
X9643701Y5363830D03*
X9006201Y5843310D03*
X8862451Y5780810D03*
X8928701Y6458310D03*
X10412451Y6137060D03*
X10543701Y6174560D03*
X10706201Y6099560D03*
X10731201Y5993310D03*
X10681201Y5918310D03*
X10606201Y5843310D03*
X10499951Y5918310D03*
X10462451Y5780810D03*
X10471651Y5543310D03*
X10518701Y5362060D03*
X10793701D03*
X10918701D03*
X10871651Y5543310D03*
X10768701Y5687060D03*
X10862451Y5780810D03*
X10899951Y5918310D03*
X10949951Y5993310D03*
X11128701D03*
X11081201Y5918310D03*
X11131201Y5855810D03*
X11006201Y5843310D03*
X11124951Y5693310D03*
X11203701Y5583310D03*
X11428701Y5578310D03*
X11433701Y5408310D03*
X11193701Y5362060D03*
X11137451Y6130810D03*
X11149951Y6268310D03*
X10999951Y6180810D03*
X10924951Y6212060D03*
X10849951Y6180810D03*
X11206201Y6493310D03*
X11324951Y6487060D03*
X11456201Y6374560D03*
X11443701Y6568310D03*
X11233701D03*
X11223701Y6763940D03*
X11028701Y6838310D03*
X10818701Y6753310D03*
X10718701D03*
X10618701D03*
X10518701D03*
X10418701D03*
X10473701Y6663310D03*
X10573701D03*
X10673701D03*
X10773701D03*
X10823701Y6573310D03*
X10723701D03*
X10623701D03*
X10523701D03*
X10423701D03*
X10373701Y6663310D03*
X10223701Y6668310D03*
X10123701D03*
X10023701D03*
X9923701D03*
X9823701D03*
X9868701Y6758310D03*
X9968701D03*
X10068701D03*
X10168701D03*
X10268701D03*
X10273701Y6578310D03*
X10173701D03*
X10073701D03*
X9973701D03*
X9873701D03*
X9143701Y6548310D03*
X9123701Y6693310D03*
X8908701D03*
X8928701Y6548310D03*
X8713701D03*
X8693701Y6693310D03*
X8478701D03*
X8498701Y6548310D03*
X8273701Y6603310D03*
X8058701D03*
X5003701Y6548310D03*
Y6738310D03*
X4853701D03*
X4763701D03*
X4528701Y6653310D03*
X4253701Y6668310D03*
Y6598310D03*
X4583701Y6923310D03*
X4093701Y6678310D03*
X3793701D03*
X3708701Y6738310D03*
X3648701D03*
Y6673310D03*
Y6623310D03*
X3590101Y6565240D03*
X3508851Y6640240D03*
X3503701Y6723310D03*
X3423701Y6743310D03*
Y6821120D03*
X3583851Y6746490D03*
X3758701Y6813310D03*
X3868701Y6833310D03*
X3893701Y6793310D03*
X3333701Y6603310D03*
X3193701Y6598310D03*
X2598701Y6673310D03*
X2593701Y6853310D03*
X2493701D03*
X2393701D03*
X2293701D03*
X2193701D03*
X2148701Y6763310D03*
X2248701D03*
X2348701D03*
X2448701D03*
X2548701D03*
X2498701Y6673310D03*
X2398701D03*
X2298701D03*
X2198701D03*
X1763701Y6753310D03*
X1157451Y6823940D03*
Y6905190D03*
X907451Y6855190D03*
X898701Y6738940D03*
X818701Y6688310D03*
X737861Y6694150D03*
X667301Y6569710D03*
X668701Y6853310D03*
X653701Y6908310D03*
G54D10*
X4256201Y8259750D03*
X3924411Y7776310D03*
X3862991Y7579460D03*
X563701Y9462250D03*
X953701Y9981620D03*
X1033701Y9907250D03*
X1324951Y9884750D03*
X4256201Y8507710D03*
X1923701Y10397250D03*
G54D11*
X9346061Y8005720D03*
Y8202570D03*
Y8399420D03*
X9641341D03*
Y8202570D03*
Y8005720D03*
X9946061D03*
Y8202570D03*
Y8399420D03*
X10241341D03*
Y8202570D03*
Y8005720D03*
X5841341D03*
Y8202570D03*
Y8399420D03*
X5546061D03*
Y8202570D03*
Y8005720D03*
X5241341D03*
Y8202570D03*
Y8399420D03*
X4946061D03*
Y8202570D03*
Y8005720D03*
X3841341D03*
Y8202570D03*
Y8399420D03*
X3546061D03*
Y8202570D03*
Y8005720D03*
X3241341D03*
Y8202570D03*
Y8399420D03*
X2946061D03*
Y8202570D03*
Y8005720D03*
X2641341D03*
Y8202570D03*
Y8399420D03*
X2346061D03*
Y8202570D03*
Y8005720D03*
X2041341D03*
Y8202570D03*
Y8399420D03*
X1746061D03*
Y8202570D03*
Y8005720D03*
X652751Y8405520D03*
X534651D03*
Y8523630D03*
X652751D03*
Y9232290D03*
Y9350400D03*
X534651D03*
Y9232290D03*
X1746061Y8989970D03*
X2041341D03*
X2346061D03*
X2641341D03*
X2946061D03*
X3241341D03*
X3546061D03*
X3841341D03*
X4946061D03*
X5241341D03*
X5546061D03*
X5841341D03*
X9346061D03*
X9641341D03*
X9946061D03*
X10241341D03*
G54D12*
X5743701Y10068120D03*
Y10168120D03*
X5843701D03*
Y10068120D03*
X5943701D03*
Y10168120D03*
X6043701D03*
Y10068120D03*
X6143701D03*
Y10168120D03*
X6243701D03*
Y10068120D03*
X6343701D03*
Y10168120D03*
X6443701D03*
Y10068120D03*
X6543701D03*
Y10168120D03*
X5643701D03*
X5543701D03*
X5443701D03*
X5343701D03*
Y10068120D03*
X5443701D03*
X5543701D03*
X5643701D03*
G54D13*
X10531501Y7103550D03*
X10731491D03*
Y7403550D03*
X10531501D03*
Y7497250D03*
Y7797250D03*
X10640941Y8133860D03*
Y8330720D03*
X11040941D03*
Y8133860D03*
X11131501Y7403550D03*
Y7103550D03*
X10231491D03*
Y7403550D03*
X9631501D03*
X9331501D03*
Y7497250D03*
X9131501Y7403550D03*
X8931491D03*
Y7497250D03*
Y7797250D03*
X9331501D03*
X9040941Y8133860D03*
Y8330720D03*
X9131501Y7103550D03*
X9331501D03*
X9631501D03*
X8931491D03*
X8731491D03*
X8531501D03*
X8331491D03*
X8131491D03*
X7931501D03*
X7731491D03*
X7531501D03*
X7331491D03*
Y7403550D03*
Y7497250D03*
X7531501Y7403550D03*
X7731491D03*
Y7497250D03*
X7931501Y7403550D03*
X8131491D03*
Y7497250D03*
X8331491Y7403550D03*
X8531501D03*
Y7497250D03*
X8731491Y7403550D03*
X8531501Y7797250D03*
X8131491D03*
X7731491D03*
X7331491D03*
X7440941Y8133860D03*
Y8330720D03*
X7840941D03*
Y8133860D03*
X8240941D03*
Y8330720D03*
X8640941D03*
Y8133860D03*
X7040941D03*
Y8330720D03*
X6640941D03*
Y8133860D03*
X6240941D03*
Y8330720D03*
X6131491Y7797250D03*
Y7497250D03*
Y7403550D03*
X6331491D03*
Y7103550D03*
X6131491D03*
X5831491D03*
Y7403550D03*
X6731491D03*
X6931501D03*
Y7497250D03*
X7131491Y7403550D03*
Y7103550D03*
X6931501D03*
X6731491D03*
X6931501Y7797250D03*
X4931501D03*
Y7497250D03*
Y7403550D03*
X4731491D03*
X4531501D03*
Y7497250D03*
X4331501Y7403550D03*
X4131491D03*
Y7497250D03*
Y7797250D03*
X4531501D03*
X4640941Y8133860D03*
Y8330720D03*
X4731491Y7103550D03*
X4531501D03*
X4331501D03*
X4131491D03*
X4931501D03*
X5231491D03*
Y7403550D03*
X3831501D03*
Y7103550D03*
X3231501D03*
Y7403550D03*
X2631491D03*
Y7103550D03*
X2031491D03*
X1731491D03*
X1531501D03*
Y7403550D03*
X1731491D03*
Y7497250D03*
Y7797250D03*
X1440941Y8133860D03*
Y8330720D03*
X1040941D03*
Y8133860D03*
X1131491Y7403550D03*
Y7103550D03*
X2031491Y7403550D03*
X931501D03*
Y7497250D03*
Y7797250D03*
Y7103550D03*
X1040941Y8527570D03*
X1440941D03*
Y8964570D03*
Y9112210D03*
X1040941D03*
Y8964570D03*
X4640941D03*
Y9112210D03*
Y8527570D03*
X6240941D03*
X6640941D03*
X7040941D03*
Y8964570D03*
Y9112210D03*
X6640941D03*
Y8964570D03*
X6240941D03*
Y9112210D03*
X7440941D03*
Y8964570D03*
X7840941D03*
Y9112210D03*
X8240941D03*
Y8964570D03*
X8640941D03*
Y9112210D03*
Y8527570D03*
X8240941D03*
X7840941D03*
X7440941D03*
X9040941D03*
Y8964570D03*
Y9112210D03*
X10640941D03*
Y8964570D03*
X11040941D03*
Y9112210D03*
Y8527570D03*
X10640941D03*
G54D14*
X416541Y8560640D03*
X770861D03*
Y9195280D03*
X416541D03*
G54D15*
X11393701Y7265360D03*
X493701D03*
X11393701Y10254340D03*
X493701D03*
G54D16*
X11393701Y7107880D03*
X493701D03*
X11393701Y10411820D03*
X493701D03*
G54D17*
X918701Y8866000D03*
X862451Y9284750D03*
X899951Y9422250D03*
X838701Y10042250D03*
X618701Y10022250D03*
X663701Y9972250D03*
X1394951Y9934750D03*
X1453701Y9872250D03*
X1543701Y9678500D03*
X1718701Y9541000D03*
X1812451Y9591000D03*
X1899951Y9434750D03*
X1839701Y9268020D03*
X1893701Y9136520D03*
X1887451Y8999020D03*
X1749951Y8867770D03*
X1593701Y8866000D03*
X1318701D03*
X1193701D03*
Y9153500D03*
X1262451Y9284750D03*
X1299951Y9422250D03*
X1293701Y9547250D03*
X1174951Y9378500D03*
X1081201Y9422250D03*
X1006201Y9347250D03*
X1406201D03*
X1481201Y9422250D03*
X1593701Y9328500D03*
X1599951Y9178500D03*
X1687451Y9211520D03*
X2131201Y9266000D03*
X2287451Y9211520D03*
X2439701Y9268020D03*
X2493701Y9136520D03*
X2487451Y8999020D03*
X2349951Y8867770D03*
X2148701Y8967250D03*
X2043701Y8867770D03*
X2223701Y9592250D03*
X2323701D03*
X2423701D03*
X2523701D03*
X2473701Y9682250D03*
X2373701D03*
X2273701D03*
X2173701D03*
X2218701Y9772250D03*
X2318701D03*
X2418701D03*
X2518701D03*
X1863701Y9991000D03*
X2618701Y9772250D03*
X2573701Y9682250D03*
X2623701Y9592250D03*
X2798701Y9422250D03*
X2855891D03*
X2918701D03*
X2983701D03*
X3038701D03*
X3133701Y9472250D03*
X3128701Y9632250D03*
X3333701Y9627250D03*
X3379351Y9648430D03*
X3333701Y9542250D03*
Y9472250D03*
X3433701Y9427250D03*
X3458851Y9500430D03*
X3558851Y9487930D03*
X3602601D03*
X3603701Y9427250D03*
X3653701Y9437250D03*
X3763701D03*
X3823701Y9392250D03*
X3849951Y9322250D03*
X3774951Y9323250D03*
X3693701Y9362250D03*
X3713701Y9517250D03*
X3733701Y9577250D03*
X3678701D03*
X3648701Y9637250D03*
X3521351Y9621180D03*
Y9550430D03*
X3543701Y9737250D03*
X3523701Y9797250D03*
X3490101Y9844180D03*
X3427601Y9781680D03*
X3273701Y9747250D03*
X3371351Y9919180D03*
X3365101Y10000430D03*
X3228701Y9977250D03*
X3089701Y9921250D03*
X3523701Y9947250D03*
X3521351Y10031680D03*
X3698701Y9992250D03*
X3723701Y9931820D03*
X3773701Y9932250D03*
X3828701D03*
X3878701D03*
X3853701Y9867250D03*
X3901201Y9834750D03*
X3988701Y9872250D03*
X3968701Y9952250D03*
X3922431Y10017250D03*
X3823701D03*
X3753701Y9877250D03*
Y9707250D03*
X3833021D03*
X3883701D03*
X3935831Y9708150D03*
X3908701Y9572250D03*
X3878701Y9532250D03*
X3908701Y9487250D03*
Y9432250D03*
X3937451Y9322250D03*
X4038701Y9377250D03*
Y9462250D03*
X3828701Y9567250D03*
X3608451Y9269790D03*
X3456201Y9211520D03*
X3387451Y9147250D03*
X3308701Y9177250D03*
X3331201Y9266000D03*
X3039701Y9268020D03*
X3093701Y9136520D03*
X3087451Y8999020D03*
X2949951Y8867770D03*
X2833701Y8972250D03*
X2787451Y9153500D03*
X2887451Y9211520D03*
X2731201Y9266000D03*
X2643701Y8867770D03*
X3243701D03*
X3549951D03*
X3843701D03*
X4758701Y8992250D03*
X4887451Y9147250D03*
Y9211520D03*
X4837451Y9347250D03*
X4778701Y9397250D03*
X4788701Y9457250D03*
X4853701Y9462250D03*
X5003701Y9467250D03*
Y9662250D03*
X5113701D03*
Y9572250D03*
X5078701Y9602250D03*
X5283701Y9617250D03*
X5318701Y9572250D03*
X5283701Y9522250D03*
X5318701Y9662250D03*
X5333701Y9802250D03*
X5128701D03*
X5003701Y9857250D03*
X4853701Y9852250D03*
X4763701D03*
Y9657250D03*
X4853701D03*
X4583701Y9627250D03*
X4528701Y9772250D03*
Y9847250D03*
X4473701Y9832250D03*
X4448701Y9872250D03*
X4388701D03*
X4328701D03*
X4283701Y9842250D03*
X4383701Y9807250D03*
X4433701Y10022250D03*
X4333701D03*
X4138701Y10037250D03*
X4148701Y9897250D03*
X4203701D03*
X4138701Y9722250D03*
X4362451Y9516000D03*
X4424951Y9391000D03*
X4449951Y9322250D03*
X4574951Y9284750D03*
X4581201Y9409750D03*
X4518701Y9452250D03*
X4718701Y9347250D03*
X5039701Y9268020D03*
X5156201Y9284750D03*
X5228701Y9337250D03*
X5433701D03*
X5487451Y9211520D03*
X5456201Y9078500D03*
X5331201Y9141000D03*
X5093701Y9136520D03*
X5087451Y8999020D03*
X4949951Y8867770D03*
X5243701D03*
X5549951D03*
X5687451Y8999020D03*
X5639701Y9268020D03*
X5638701Y9337250D03*
X5488701Y9537250D03*
X5523701Y9572250D03*
Y9662250D03*
X5538701Y9802250D03*
X4853701Y10047250D03*
X4763701D03*
X4618701Y10022250D03*
X5853701Y9807250D03*
Y9662250D03*
Y9587250D03*
Y9537250D03*
X5888701Y9617250D03*
X6098701Y9622250D03*
X6058701Y9662250D03*
Y9572250D03*
Y9512250D03*
X6208701Y9497250D03*
X6273701Y9502250D03*
X6333701D03*
X6418701D03*
X6513701D03*
X6568701D03*
Y9623250D03*
X6713701Y9502250D03*
X6803701D03*
X6868701D03*
X6983701Y9497250D03*
X7038701Y9502250D03*
X7081201Y9422250D03*
X7006201Y9347250D03*
X6862451Y9284750D03*
X6798701Y9312250D03*
X6787451Y9147250D03*
X6793701Y8866000D03*
X6918701D03*
X7193701D03*
X7218701Y9087250D03*
X7188701Y9292250D03*
X7228701Y9467250D03*
X7183701Y9502250D03*
X7188701Y9732250D03*
X7098701Y9692250D03*
X6968701Y9672250D03*
X6756201Y9447250D03*
X6681201Y9422250D03*
X6608701Y9342250D03*
X6462451Y9284750D03*
X6374951Y9322250D03*
X6399951Y9159750D03*
X6393701Y8866000D03*
X6518701D03*
X6118701D03*
X6071651Y9047250D03*
X5956201Y9159750D03*
X5943701Y9337250D03*
X6062451Y9284750D03*
X6206201Y9347250D03*
X6281201Y9422250D03*
X5738701Y9337250D03*
X5758701Y9267330D03*
X5693701Y9136520D03*
X5843701Y8867770D03*
X6038701Y9807250D03*
X7278701Y9732250D03*
X7458701D03*
X7438701Y9667250D03*
X7668701Y9692250D03*
X7688701Y9627250D03*
X7758701Y9542250D03*
X7881201Y9422250D03*
X7806201Y9347250D03*
X7987451Y9322250D03*
X8062451Y9284750D03*
X8206201Y9347250D03*
X8281201Y9422250D03*
X8243701Y9507250D03*
X8178701Y9632250D03*
X8118701D03*
X7963701D03*
X7878701Y9692250D03*
X7873701Y9782250D03*
Y9872250D03*
X7853701Y10017250D03*
X8078701Y9962250D03*
Y9872250D03*
X8293701D03*
Y9962250D03*
X8308701Y9797250D03*
X8383701Y9722250D03*
X8518701D03*
X8598701D03*
X8718701Y9662250D03*
X8813701Y9722250D03*
X8713701Y9962250D03*
X8498701D03*
X8523701Y9847250D03*
X8573701Y9547250D03*
X8644701D03*
X8612451Y9491000D03*
X8681201Y9422250D03*
X8606201Y9347250D03*
X8774951Y9334750D03*
X8462451Y9284750D03*
X8381201Y9322250D03*
X8448701Y9507250D03*
X8028701D03*
X7553701Y9452250D03*
X7528701Y9387250D03*
X7481201Y9422250D03*
X7406201Y9347250D03*
X7568701Y9316000D03*
X7618701Y9377250D03*
X7662451Y9284750D03*
X7262451D03*
X7273701Y9502250D03*
X7458701Y9902250D03*
X7648701Y9927250D03*
X7668701Y9782250D03*
X7718701Y8866000D03*
X7593701D03*
X7318701D03*
X7993701D03*
X8118701D03*
X8393701D03*
X8518701D03*
X8793701D03*
X8918701D03*
X9193701D03*
X9349951Y8867770D03*
X9487451Y8999020D03*
X9493701Y9136520D03*
X9439701Y9268020D03*
X9382701Y9314880D03*
X9456201Y9366000D03*
X9543701Y9303500D03*
X9649951Y9347250D03*
X9643701Y9428500D03*
X9518701Y9472250D03*
X9524951Y9572250D03*
X9412451Y9559750D03*
Y9478500D03*
X9295261Y9408190D03*
X9256201Y9322250D03*
X9287451Y9211520D03*
X9143701Y9391000D03*
X9081201Y9422250D03*
X9129951Y9507250D03*
X8906201Y9517770D03*
X8938701Y9567250D03*
X8906201Y9616000D03*
X9028701Y9722250D03*
X9093701D03*
X9143701Y9782250D03*
Y9962250D03*
X9238701Y9937250D03*
X9278701Y9692250D03*
X9274951Y9616000D03*
X9431201Y9647250D03*
X9668701Y9609750D03*
X9736701Y9514500D03*
X9909701Y9522250D03*
X9893701Y9422250D03*
X9982701Y9314880D03*
X10039701Y9268020D03*
X10093701Y9136520D03*
X10087451Y8999020D03*
X9949951Y8867770D03*
X10243701D03*
X10368701Y9216000D03*
X10331201Y9428500D03*
X10216701Y9462250D03*
X10227701Y9570250D03*
X10112451Y9659750D03*
X10099951Y9459750D03*
X9852701Y9612250D03*
X9887451Y9211520D03*
X9643701Y8867770D03*
X9006201Y9347250D03*
X8862451Y9284750D03*
X8928701Y9962250D03*
X10412451Y9641000D03*
X10543701Y9678500D03*
X10706201Y9603500D03*
X10731201Y9497250D03*
X10681201Y9422250D03*
X10606201Y9347250D03*
X10499951Y9422250D03*
X10462451Y9284750D03*
X10471651Y9047250D03*
X10518701Y8866000D03*
X10793701D03*
X10918701D03*
X10871651Y9047250D03*
X10768701Y9191000D03*
X10862451Y9284750D03*
X10899951Y9422250D03*
X10949951Y9497250D03*
X11128701D03*
X11081201Y9422250D03*
X11131201Y9359750D03*
X11006201Y9347250D03*
X11124951Y9197250D03*
X11203701Y9087250D03*
X11428701Y9082250D03*
X11433701Y8912250D03*
X11193701Y8866000D03*
X11137451Y9634750D03*
X11149951Y9772250D03*
X10999951Y9684750D03*
X10924951Y9716000D03*
X10849951Y9684750D03*
X11206201Y9997250D03*
X11324951Y9991000D03*
X11456201Y9878500D03*
X11443701Y10072250D03*
X11233701D03*
X11223701Y10267880D03*
X11028701Y10342250D03*
X10818701Y10257250D03*
X10718701D03*
X10618701D03*
X10518701D03*
X10418701D03*
X10473701Y10167250D03*
X10573701D03*
X10673701D03*
X10773701D03*
X10823701Y10077250D03*
X10723701D03*
X10623701D03*
X10523701D03*
X10423701D03*
X10373701Y10167250D03*
X10223701Y10172250D03*
X10123701D03*
X10023701D03*
X9923701D03*
X9823701D03*
X9868701Y10262250D03*
X9968701D03*
X10068701D03*
X10168701D03*
X10268701D03*
X10273701Y10082250D03*
X10173701D03*
X10073701D03*
X9973701D03*
X9873701D03*
X9143701Y10052250D03*
X9123701Y10197250D03*
X8908701D03*
X8928701Y10052250D03*
X8713701D03*
X8693701Y10197250D03*
X8478701D03*
X8498701Y10052250D03*
X8273701Y10107250D03*
X8058701D03*
X5003701Y10052250D03*
Y10242250D03*
X4853701D03*
X4763701D03*
X4528701Y10157250D03*
X4253701Y10172250D03*
Y10102250D03*
X4583701Y10427250D03*
X4093701Y10182250D03*
X3793701D03*
X3708701Y10242250D03*
X3648701D03*
Y10177250D03*
Y10127250D03*
X3590101Y10069180D03*
X3508851Y10144180D03*
X3503701Y10227250D03*
X3423701Y10247250D03*
Y10325060D03*
X3583851Y10250430D03*
X3758701Y10317250D03*
X3868701Y10337250D03*
X3893701Y10297250D03*
X3333701Y10107250D03*
X3193701Y10102250D03*
X2598701Y10177250D03*
X2593701Y10357250D03*
X2493701D03*
X2393701D03*
X2293701D03*
X2193701D03*
X2148701Y10267250D03*
X2248701D03*
X2348701D03*
X2448701D03*
X2548701D03*
X2498701Y10177250D03*
X2398701D03*
X2298701D03*
X2198701D03*
X1763701Y10257250D03*
X1157451Y10327880D03*
Y10409130D03*
X907451Y10359130D03*
X898701Y10242880D03*
X818701Y10192250D03*
X737861Y10198090D03*
X667301Y10073650D03*
X668701Y10357250D03*
X653701Y10412250D03*
G54D10*
X4256201Y11763690D03*
X3924411Y11280250D03*
X3862991Y11083400D03*
X563701Y12966190D03*
X953701Y13485560D03*
X1033701Y13411190D03*
X1324951Y13388690D03*
X4256201Y12011650D03*
X1923701Y13901190D03*
G54D11*
X9346061Y11509660D03*
Y11706510D03*
Y11903360D03*
X9641341D03*
Y11706510D03*
Y11509660D03*
X9946061D03*
Y11706510D03*
Y11903360D03*
X10241341D03*
Y11706510D03*
Y11509660D03*
X5841341D03*
Y11706510D03*
Y11903360D03*
X5546061D03*
Y11706510D03*
Y11509660D03*
X5241341D03*
Y11706510D03*
Y11903360D03*
X4946061D03*
Y11706510D03*
Y11509660D03*
X3841341D03*
Y11706510D03*
Y11903360D03*
X3546061D03*
Y11706510D03*
Y11509660D03*
X3241341D03*
Y11706510D03*
Y11903360D03*
X2946061D03*
Y11706510D03*
Y11509660D03*
X2641341D03*
Y11706510D03*
Y11903360D03*
X2346061D03*
Y11706510D03*
Y11509660D03*
X2041341D03*
Y11706510D03*
Y11903360D03*
X1746061D03*
Y11706510D03*
Y11509660D03*
X652751Y11909460D03*
X534651D03*
Y12027570D03*
X652751D03*
Y12736230D03*
Y12854340D03*
X534651D03*
Y12736230D03*
X1746061Y12493910D03*
X2041341D03*
X2346061D03*
X2641341D03*
X2946061D03*
X3241341D03*
X3546061D03*
X3841341D03*
X4946061D03*
X5241341D03*
X5546061D03*
X5841341D03*
X9346061D03*
X9641341D03*
X9946061D03*
X10241341D03*
G54D12*
X5743701Y13572060D03*
Y13672060D03*
X5843701D03*
Y13572060D03*
X5943701D03*
Y13672060D03*
X6043701D03*
Y13572060D03*
X6143701D03*
Y13672060D03*
X6243701D03*
Y13572060D03*
X6343701D03*
Y13672060D03*
X6443701D03*
Y13572060D03*
X6543701D03*
Y13672060D03*
X5643701D03*
X5543701D03*
X5443701D03*
X5343701D03*
Y13572060D03*
X5443701D03*
X5543701D03*
X5643701D03*
G54D13*
X10531501Y10607490D03*
X10731491D03*
Y10907490D03*
X10531501D03*
Y11001190D03*
Y11301190D03*
X10640941Y11637800D03*
Y11834660D03*
X11040941D03*
Y11637800D03*
X11131501Y10907490D03*
Y10607490D03*
X10231491D03*
Y10907490D03*
X9631501D03*
X9331501D03*
Y11001190D03*
X9131501Y10907490D03*
X8931491D03*
Y11001190D03*
Y11301190D03*
X9331501D03*
X9040941Y11637800D03*
Y11834660D03*
X9131501Y10607490D03*
X9331501D03*
X9631501D03*
X8931491D03*
X8731491D03*
X8531501D03*
X8331491D03*
X8131491D03*
X7931501D03*
X7731491D03*
X7531501D03*
X7331491D03*
Y10907490D03*
Y11001190D03*
X7531501Y10907490D03*
X7731491D03*
Y11001190D03*
X7931501Y10907490D03*
X8131491D03*
Y11001190D03*
X8331491Y10907490D03*
X8531501D03*
Y11001190D03*
X8731491Y10907490D03*
X8531501Y11301190D03*
X8131491D03*
X7731491D03*
X7331491D03*
X7440941Y11637800D03*
Y11834660D03*
X7840941D03*
Y11637800D03*
X8240941D03*
Y11834660D03*
X8640941D03*
Y11637800D03*
X7040941D03*
Y11834660D03*
X6640941D03*
Y11637800D03*
X6240941D03*
Y11834660D03*
X6131491Y11301190D03*
Y11001190D03*
Y10907490D03*
X6331491D03*
Y10607490D03*
X6131491D03*
X5831491D03*
Y10907490D03*
X6731491D03*
X6931501D03*
Y11001190D03*
X7131491Y10907490D03*
Y10607490D03*
X6931501D03*
X6731491D03*
X6931501Y11301190D03*
X4931501D03*
Y11001190D03*
Y10907490D03*
X4731491D03*
X4531501D03*
Y11001190D03*
X4331501Y10907490D03*
X4131491D03*
Y11001190D03*
Y11301190D03*
X4531501D03*
X4640941Y11637800D03*
Y11834660D03*
X4731491Y10607490D03*
X4531501D03*
X4331501D03*
X4131491D03*
X4931501D03*
X5231491D03*
Y10907490D03*
X3831501D03*
Y10607490D03*
X3231501D03*
Y10907490D03*
X2631491D03*
Y10607490D03*
X2031491D03*
X1731491D03*
X1531501D03*
Y10907490D03*
X1731491D03*
Y11001190D03*
Y11301190D03*
X1440941Y11637800D03*
Y11834660D03*
X1040941D03*
Y11637800D03*
X1131491Y10907490D03*
Y10607490D03*
X2031491Y10907490D03*
X931501D03*
Y11001190D03*
Y11301190D03*
Y10607490D03*
X1040941Y12031510D03*
X1440941D03*
Y12468510D03*
Y12616150D03*
X1040941D03*
Y12468510D03*
X4640941D03*
Y12616150D03*
Y12031510D03*
X6240941D03*
X6640941D03*
X7040941D03*
Y12468510D03*
Y12616150D03*
X6640941D03*
Y12468510D03*
X6240941D03*
Y12616150D03*
X7440941D03*
Y12468510D03*
X7840941D03*
Y12616150D03*
X8240941D03*
Y12468510D03*
X8640941D03*
Y12616150D03*
Y12031510D03*
X8240941D03*
X7840941D03*
X7440941D03*
X9040941D03*
Y12468510D03*
Y12616150D03*
X10640941D03*
Y12468510D03*
X11040941D03*
Y12616150D03*
Y12031510D03*
X10640941D03*
G54D14*
X416541Y12064580D03*
X770861D03*
Y12699220D03*
X416541D03*
G54D15*
X11393701Y10769300D03*
X493701D03*
X11393701Y13758280D03*
X493701D03*
G54D16*
X11393701Y10611820D03*
X493701D03*
X11393701Y13915760D03*
X493701D03*
G54D17*
X918701Y12369940D03*
X862451Y12788690D03*
X899951Y12926190D03*
X838701Y13546190D03*
X618701Y13526190D03*
X663701Y13476190D03*
X1394951Y13438690D03*
X1453701Y13376190D03*
X1543701Y13182440D03*
X1718701Y13044940D03*
X1812451Y13094940D03*
X1899951Y12938690D03*
X1839701Y12771960D03*
X1893701Y12640460D03*
X1887451Y12502960D03*
X1749951Y12371710D03*
X1593701Y12369940D03*
X1318701D03*
X1193701D03*
Y12657440D03*
X1262451Y12788690D03*
X1299951Y12926190D03*
X1293701Y13051190D03*
X1174951Y12882440D03*
X1081201Y12926190D03*
X1006201Y12851190D03*
X1406201D03*
X1481201Y12926190D03*
X1593701Y12832440D03*
X1599951Y12682440D03*
X1687451Y12715460D03*
X2131201Y12769940D03*
X2287451Y12715460D03*
X2439701Y12771960D03*
X2493701Y12640460D03*
X2487451Y12502960D03*
X2349951Y12371710D03*
X2148701Y12471190D03*
X2043701Y12371710D03*
X2223701Y13096190D03*
X2323701D03*
X2423701D03*
X2523701D03*
X2473701Y13186190D03*
X2373701D03*
X2273701D03*
X2173701D03*
X2218701Y13276190D03*
X2318701D03*
X2418701D03*
X2518701D03*
X1863701Y13494940D03*
X2618701Y13276190D03*
X2573701Y13186190D03*
X2623701Y13096190D03*
X2798701Y12926190D03*
X2855891D03*
X2918701D03*
X2983701D03*
X3038701D03*
X3133701Y12976190D03*
X3128701Y13136190D03*
X3333701Y13131190D03*
X3379351Y13152370D03*
X3333701Y13046190D03*
Y12976190D03*
X3433701Y12931190D03*
X3458851Y13004370D03*
X3558851Y12991870D03*
X3602601D03*
X3603701Y12931190D03*
X3653701Y12941190D03*
X3763701D03*
X3823701Y12896190D03*
X3849951Y12826190D03*
X3774951Y12827190D03*
X3693701Y12866190D03*
X3713701Y13021190D03*
X3733701Y13081190D03*
X3678701D03*
X3648701Y13141190D03*
X3521351Y13125120D03*
Y13054370D03*
X3543701Y13241190D03*
X3523701Y13301190D03*
X3490101Y13348120D03*
X3427601Y13285620D03*
X3273701Y13251190D03*
X3371351Y13423120D03*
X3365101Y13504370D03*
X3228701Y13481190D03*
X3089701Y13425190D03*
X3523701Y13451190D03*
X3521351Y13535620D03*
X3698701Y13496190D03*
X3723701Y13435760D03*
X3773701Y13436190D03*
X3828701D03*
X3878701D03*
X3853701Y13371190D03*
X3901201Y13338690D03*
X3988701Y13376190D03*
X3968701Y13456190D03*
X3922431Y13521190D03*
X3823701D03*
X3753701Y13381190D03*
Y13211190D03*
X3833021D03*
X3883701D03*
X3935831Y13212090D03*
X3908701Y13076190D03*
X3878701Y13036190D03*
X3908701Y12991190D03*
Y12936190D03*
X3937451Y12826190D03*
X4038701Y12881190D03*
Y12966190D03*
X3828701Y13071190D03*
X3608451Y12773730D03*
X3456201Y12715460D03*
X3387451Y12651190D03*
X3308701Y12681190D03*
X3331201Y12769940D03*
X3039701Y12771960D03*
X3093701Y12640460D03*
X3087451Y12502960D03*
X2949951Y12371710D03*
X2833701Y12476190D03*
X2787451Y12657440D03*
X2887451Y12715460D03*
X2731201Y12769940D03*
X2643701Y12371710D03*
X3243701D03*
X3549951D03*
X3843701D03*
X4758701Y12496190D03*
X4887451Y12651190D03*
Y12715460D03*
X4837451Y12851190D03*
X4778701Y12901190D03*
X4788701Y12961190D03*
X4853701Y12966190D03*
X5003701Y12971190D03*
Y13166190D03*
X5113701D03*
Y13076190D03*
X5078701Y13106190D03*
X5283701Y13121190D03*
X5318701Y13076190D03*
X5283701Y13026190D03*
X5318701Y13166190D03*
X5333701Y13306190D03*
X5128701D03*
X5003701Y13361190D03*
X4853701Y13356190D03*
X4763701D03*
Y13161190D03*
X4853701D03*
X4583701Y13131190D03*
X4528701Y13276190D03*
Y13351190D03*
X4473701Y13336190D03*
X4448701Y13376190D03*
X4388701D03*
X4328701D03*
X4283701Y13346190D03*
X4383701Y13311190D03*
X4433701Y13526190D03*
X4333701D03*
X4138701Y13541190D03*
X4148701Y13401190D03*
X4203701D03*
X4138701Y13226190D03*
X4362451Y13019940D03*
X4424951Y12894940D03*
X4449951Y12826190D03*
X4574951Y12788690D03*
X4581201Y12913690D03*
X4518701Y12956190D03*
X4718701Y12851190D03*
X5039701Y12771960D03*
X5156201Y12788690D03*
X5228701Y12841190D03*
X5433701D03*
X5487451Y12715460D03*
X5456201Y12582440D03*
X5331201Y12644940D03*
X5093701Y12640460D03*
X5087451Y12502960D03*
X4949951Y12371710D03*
X5243701D03*
X5549951D03*
X5687451Y12502960D03*
X5639701Y12771960D03*
X5638701Y12841190D03*
X5488701Y13041190D03*
X5523701Y13076190D03*
Y13166190D03*
X5538701Y13306190D03*
X4853701Y13551190D03*
X4763701D03*
X4618701Y13526190D03*
X5853701Y13311190D03*
Y13166190D03*
Y13091190D03*
Y13041190D03*
X5888701Y13121190D03*
X6098701Y13126190D03*
X6058701Y13166190D03*
Y13076190D03*
Y13016190D03*
X6208701Y13001190D03*
X6273701Y13006190D03*
X6333701D03*
X6418701D03*
X6513701D03*
X6568701D03*
Y13127190D03*
X6713701Y13006190D03*
X6803701D03*
X6868701D03*
X6983701Y13001190D03*
X7038701Y13006190D03*
X7081201Y12926190D03*
X7006201Y12851190D03*
X6862451Y12788690D03*
X6798701Y12816190D03*
X6787451Y12651190D03*
X6793701Y12369940D03*
X6918701D03*
X7193701D03*
X7218701Y12591190D03*
X7188701Y12796190D03*
X7228701Y12971190D03*
X7183701Y13006190D03*
X7188701Y13236190D03*
X7098701Y13196190D03*
X6968701Y13176190D03*
X6756201Y12951190D03*
X6681201Y12926190D03*
X6608701Y12846190D03*
X6462451Y12788690D03*
X6374951Y12826190D03*
X6399951Y12663690D03*
X6393701Y12369940D03*
X6518701D03*
X6118701D03*
X6071651Y12551190D03*
X5956201Y12663690D03*
X5943701Y12841190D03*
X6062451Y12788690D03*
X6206201Y12851190D03*
X6281201Y12926190D03*
X5738701Y12841190D03*
X5758701Y12771270D03*
X5693701Y12640460D03*
X5843701Y12371710D03*
X6038701Y13311190D03*
X7278701Y13236190D03*
X7458701D03*
X7438701Y13171190D03*
X7668701Y13196190D03*
X7688701Y13131190D03*
X7758701Y13046190D03*
X7881201Y12926190D03*
X7806201Y12851190D03*
X7987451Y12826190D03*
X8062451Y12788690D03*
X8206201Y12851190D03*
X8281201Y12926190D03*
X8243701Y13011190D03*
X8178701Y13136190D03*
X8118701D03*
X7963701D03*
X7878701Y13196190D03*
X7873701Y13286190D03*
Y13376190D03*
X7853701Y13521190D03*
X8078701Y13466190D03*
Y13376190D03*
X8293701D03*
Y13466190D03*
X8308701Y13301190D03*
X8383701Y13226190D03*
X8518701D03*
X8598701D03*
X8718701Y13166190D03*
X8813701Y13226190D03*
X8713701Y13466190D03*
X8498701D03*
X8523701Y13351190D03*
X8573701Y13051190D03*
X8644701D03*
X8612451Y12994940D03*
X8681201Y12926190D03*
X8606201Y12851190D03*
X8774951Y12838690D03*
X8462451Y12788690D03*
X8381201Y12826190D03*
X8448701Y13011190D03*
X8028701D03*
X7553701Y12956190D03*
X7528701Y12891190D03*
X7481201Y12926190D03*
X7406201Y12851190D03*
X7568701Y12819940D03*
X7618701Y12881190D03*
X7662451Y12788690D03*
X7262451D03*
X7273701Y13006190D03*
X7458701Y13406190D03*
X7648701Y13431190D03*
X7668701Y13286190D03*
X7718701Y12369940D03*
X7593701D03*
X7318701D03*
X7993701D03*
X8118701D03*
X8393701D03*
X8518701D03*
X8793701D03*
X8918701D03*
X9193701D03*
X9349951Y12371710D03*
X9487451Y12502960D03*
X9493701Y12640460D03*
X9439701Y12771960D03*
X9382701Y12818820D03*
X9456201Y12869940D03*
X9543701Y12807440D03*
X9649951Y12851190D03*
X9643701Y12932440D03*
X9518701Y12976190D03*
X9524951Y13076190D03*
X9412451Y13063690D03*
Y12982440D03*
X9295261Y12912130D03*
X9256201Y12826190D03*
X9287451Y12715460D03*
X9143701Y12894940D03*
X9081201Y12926190D03*
X9129951Y13011190D03*
X8906201Y13021710D03*
X8938701Y13071190D03*
X8906201Y13119940D03*
X9028701Y13226190D03*
X9093701D03*
X9143701Y13286190D03*
Y13466190D03*
X9238701Y13441190D03*
X9278701Y13196190D03*
X9274951Y13119940D03*
X9431201Y13151190D03*
X9668701Y13113690D03*
X9736701Y13018440D03*
X9909701Y13026190D03*
X9893701Y12926190D03*
X9982701Y12818820D03*
X10039701Y12771960D03*
X10093701Y12640460D03*
X10087451Y12502960D03*
X9949951Y12371710D03*
X10243701D03*
X10368701Y12719940D03*
X10331201Y12932440D03*
X10216701Y12966190D03*
X10227701Y13074190D03*
X10112451Y13163690D03*
X10099951Y12963690D03*
X9852701Y13116190D03*
X9887451Y12715460D03*
X9643701Y12371710D03*
X9006201Y12851190D03*
X8862451Y12788690D03*
X8928701Y13466190D03*
X10412451Y13144940D03*
X10543701Y13182440D03*
X10706201Y13107440D03*
X10731201Y13001190D03*
X10681201Y12926190D03*
X10606201Y12851190D03*
X10499951Y12926190D03*
X10462451Y12788690D03*
X10471651Y12551190D03*
X10518701Y12369940D03*
X10793701D03*
X10918701D03*
X10871651Y12551190D03*
X10768701Y12694940D03*
X10862451Y12788690D03*
X10899951Y12926190D03*
X10949951Y13001190D03*
X11128701D03*
X11081201Y12926190D03*
X11131201Y12863690D03*
X11006201Y12851190D03*
X11124951Y12701190D03*
X11203701Y12591190D03*
X11428701Y12586190D03*
X11433701Y12416190D03*
X11193701Y12369940D03*
X11137451Y13138690D03*
X11149951Y13276190D03*
X10999951Y13188690D03*
X10924951Y13219940D03*
X10849951Y13188690D03*
X11206201Y13501190D03*
X11324951Y13494940D03*
X11456201Y13382440D03*
X11443701Y13576190D03*
X11233701D03*
X11223701Y13771820D03*
X11028701Y13846190D03*
X10818701Y13761190D03*
X10718701D03*
X10618701D03*
X10518701D03*
X10418701D03*
X10473701Y13671190D03*
X10573701D03*
X10673701D03*
X10773701D03*
X10823701Y13581190D03*
X10723701D03*
X10623701D03*
X10523701D03*
X10423701D03*
X10373701Y13671190D03*
X10223701Y13676190D03*
X10123701D03*
X10023701D03*
X9923701D03*
X9823701D03*
X9868701Y13766190D03*
X9968701D03*
X10068701D03*
X10168701D03*
X10268701D03*
X10273701Y13586190D03*
X10173701D03*
X10073701D03*
X9973701D03*
X9873701D03*
X9143701Y13556190D03*
X9123701Y13701190D03*
X8908701D03*
X8928701Y13556190D03*
X8713701D03*
X8693701Y13701190D03*
X8478701D03*
X8498701Y13556190D03*
X8273701Y13611190D03*
X8058701D03*
X5003701Y13556190D03*
Y13746190D03*
X4853701D03*
X4763701D03*
X4528701Y13661190D03*
X4253701Y13676190D03*
Y13606190D03*
X4583701Y13931190D03*
X4093701Y13686190D03*
X3793701D03*
X3708701Y13746190D03*
X3648701D03*
Y13681190D03*
Y13631190D03*
X3590101Y13573120D03*
X3508851Y13648120D03*
X3503701Y13731190D03*
X3423701Y13751190D03*
Y13829000D03*
X3583851Y13754370D03*
X3758701Y13821190D03*
X3868701Y13841190D03*
X3893701Y13801190D03*
X3333701Y13611190D03*
X3193701Y13606190D03*
X2598701Y13681190D03*
X2593701Y13861190D03*
X2493701D03*
X2393701D03*
X2293701D03*
X2193701D03*
X2148701Y13771190D03*
X2248701D03*
X2348701D03*
X2448701D03*
X2548701D03*
X2498701Y13681190D03*
X2398701D03*
X2298701D03*
X2198701D03*
X1763701Y13761190D03*
X1157451Y13831820D03*
Y13913070D03*
X907451Y13863070D03*
X898701Y13746820D03*
X818701Y13696190D03*
X737861Y13702030D03*
X667301Y13577590D03*
X668701Y13861190D03*
X653701Y13916190D03*
G54D18*
X196850Y13818909D03*
Y196850D03*
X11690551D03*
Y13818909D03*
M02*
