M48
;Layer_Color=9474304
;FILE_FORMAT=2:5
INCH,LZ
;TYPE=PLATED
T1F00S00C0.01700
T2F00S00C0.03150
T3F00S00C0.03937
T4F00S00C0.04331
T5F00S00C0.05118
%
T01
X003Y0151875
X0024375Y019375
X0028125Y02075
X0022Y02695
X0Y02675
X00045Y02625
X0077625Y025875
X00835Y02525
X00925Y0233125
X011Y0219375
X0119375Y0224375
X0128125Y020875
X01221Y0192077
X01275Y0178927
X0126875Y0165177
X0113125Y0152052
X00975Y0151875
X007
X00575
Y0180625
X0064375Y019375
X0068125Y02075
X00675Y022
X0055625Y0203125
X004625Y02075
X003875Y02
X007875
X008625Y02075
X00975Y0198125
X0098125Y0183125
X0106875Y0186427
X015125Y0191875
X0166875Y0186427
X01821Y0192077
X01875Y0178927
X0186875Y0165177
X0173125Y0152052
X0153Y0162
X01425Y0152052
X01605Y02245
X01705
X01805
X01905
X01855Y02335
X01755
X01655
X01555
X016Y02425
X017
X018
X019
X01245Y0264375
X02Y02425
X01955Y02335
X02005Y02245
X0218Y02075
X0223719
X023
X02365
X0242
X02515Y02125
X0251Y02285
X02715Y0228
X0276065Y0230118
X02715Y02195
Y02125
X02815Y0208
X0284015Y0215318
X0294015Y0214068
X029839
X02985Y0208
X03035Y0209
X03145
X03205Y02045
X0323125Y01975
X0315625Y01976
X03075Y02015
X03095Y0217
X03115Y0223
X0306
X0303Y0229
X0290265Y0227393
Y0220318
X02925Y0239
X02905Y0245
X028714Y0249693
X028089Y0243443
X02655Y024
X0275265Y0257193
X027464Y0265318
X0261Y0263
X02471Y02574
X02905Y026
X0290265Y0268443
X0308Y02645
X03105Y0258457
X03155Y02585
X0321
X0326
X03235Y0252
X032825Y024875
X0337Y02525
X0335Y02605
X0330373Y0267
X03205
X03135Y0253
Y0236
X0321432
X03265
X0331713Y023609
X0329Y02225
X0326Y02185
X0329Y0214
Y02085
X0331875Y01975
X0342Y0203
Y02115
X0321Y0222
X0298975Y0192254
X028375Y0186427
X0276875Y018
X0269Y0183
X027125Y0191875
X02421Y0192077
X02475Y0178927
X0246875Y0165177
X0233125Y0152052
X02215Y01625
X0216875Y0180625
X0226875Y0186427
X021125Y0191875
X02025Y0152052
X02625
X0293125
X03225
X0414Y01645
X0426875Y018
Y0186427
X0421875Y02
X0416Y0205
X0417Y0211
X04235Y02115
X04385Y0212
Y02315
X04495
Y02225
X0446Y02255
X04665Y0227
X047Y02225
X04665Y02175
X047Y02315
X04715Y02455
X0451
X04385Y0251
X04235Y02505
X04145
Y0231
X04235
X03965Y0228
X0391Y02425
Y025
X03855Y02485
X0383Y02525
X0377
X0371
X03665Y02495
X03765Y0246
X03815Y02675
X03715
X0352Y0269
X0353Y0255
X03585
X0352Y02375
X0374375Y0216875
X0380625Y0204375
X0383125Y01975
X0395625Y019375
X039625Y020625
X039Y02105
X041Y02
X04421Y0192077
X045375Y019375
X0461Y0199
X04815
X0486875Y0186427
X048375Y0173125
X047125Y0179375
X04475Y0178927
X0446875Y0165177
X0433125Y0152052
X04625
X0493125
X0506875Y0165177
X05021Y0192077
X0502Y0199
X0487Y0219
X04905Y02225
Y02315
X0492Y02455
X04235Y027
X04145
X04Y02675
X05235Y0246
Y02315
Y0224
Y0219
X0527Y0227
X0548Y02275
X0544Y02315
Y02225
Y02165
X0559Y0215
X05655Y02155
X05715
X058
X05895
X0595
Y02276
X06095Y02155
X06185
X0625
X06365Y0215
X0642Y02155
X064625Y02075
X063875Y02
X0624375Y019375
X0618Y01965
X0616875Y018
X06175Y0151875
X063
X06575
X066Y0174
X0657Y01945
X0661Y0212
X06565Y02155
X0657Y02385
X0648Y02345
X0635Y02325
X061375Y021
X060625Y02075
X0599Y01995
X0584375Y019375
X0575625Y01975
X0578125Y018125
X05775Y0151875
X059
X055
X0545295Y017
X053375Y018125
X05325Y0199
X0544375Y019375
X055875Y02
X056625Y02075
X0512Y0199
X0514Y0192008
X05075Y0178927
X05225Y0152052
X0542Y0246
X0666Y02385
X0684
X0682Y0232
X0705Y02345
X0707Y0228
X0714Y02195
X072625Y02075
X071875Y02
X0736875Y01975
X0744375Y019375
X075875Y02
X076625Y02075
X07625Y0216
X0756Y02285
X075
X07345
X0726Y02345
X07255Y02435
Y02525
X07235Y0267
X0746Y02615
Y02525
X07675
Y02615
X0769Y0245
X07765Y02375
X079
X0798
X081Y02315
X08195Y02375
X08095Y02615
X0788
X07905Y025
X07955Y022
X08026
X0799375Y0214375
X080625Y02075
X079875Y02
X0815625Y019875
X0784375Y019375
X077625Y01975
X0783Y0216
X0741
X06935Y02105
X0691Y0204
X068625Y02075
X067875Y02
X0695Y0196875
X07Y0203
X0704375Y019375
X0664375
X06655Y02155
X0684Y02555
X0703Y0258
X0705Y02435
X071Y0151875
X06975
X067
X07375
X075
X07775
X079
X08175
X083
X08575
X0873125Y0152052
X0886875Y0165177
X08875Y0178927
X08821Y0192077
X08764Y0196763
X088375Y0201875
X08925Y0195625
X0903125Y02
X09025Y0208125
X089Y02125
X0890625Y02225
X0879375Y022125
Y0213125
X0867656Y0206094
X086375Y01975
X0866875Y0186427
X08525Y0204375
X084625Y02075
X0851125Y0216
X082875Y0217052
X0832Y0222
X082875Y0226875
X0841Y02375
X08475
X08525Y02435
Y02615
X0862Y0259
X0866Y02345
X0865625Y0226875
X088125Y023
X0905Y022625
X09118Y0216725
X09291Y02175
X09275Y02075
X09364Y0196763
X09421Y0192077
X09475Y0178927
X0946875Y0165177
X0933125Y0152052
X09625
X0975Y0186875
X097125Y0208125
X09598Y02115
X09609Y02223
X0949375Y023125
X0948125Y021125
X09234Y02265
X0926875Y0186427
X09025Y0152052
X083875Y02
X0824375Y019375
X0831Y02615
X0979375Y0229375
X09925Y0233125
X100875Y0225625
X101125Y0215
X100625Y02075
X099875Y02
X0988125Y02075
X0984375Y019375
X0985295Y017
X099Y0151875
X10175
X103
X1025295Y017
X1015Y0184375
X1024375Y019375
X1028125Y02075
X1033125Y0215
X1051
X104625Y02075
X105125Y020125
X103875Y02
X1050625Y0185
X10585Y0174
X1081Y01735
X10815Y01565
X10575Y0151875
X1051875Y022875
X1053125Y02425
X1038125Y023375
X1030625Y0236875
X1023125Y023375
X105875Y0265
X1070625Y0264375
X108375Y0253125
X10825Y02725
X10615Y02725
X10605Y0292063
X1041Y02995
X102Y0291
X101
X1
X099
X098
X09855Y0282
X09955
X10055
X10155
X10205Y0273
X10105
X10005
X09905
X09805
X09755Y0282
X09605Y02825
X09505
X09405
X09305
X09205
X0925Y02915
X0935
X0945
X0955
X0965
X09655Y02735
X09555
X09455
X09355
X09255
X08525Y02705
X08505Y0285
X0829
X0831Y02705
X08095
X08075Y0285
X0786
X0788Y02705
X07655Y0276
X0744
X04385Y02705
Y02895
X04235
X04145
X0391Y0281
X03635Y02825
Y02755
X03965Y0308
X03475Y02835
X03175
X0309Y02895
X0303
Y0283
Y0278
X029714Y0272193
X0289015Y0279693
X02885Y0288
X02805Y029
Y0297781
X0296515Y0290318
X0314Y0297
X0325Y0299
X03275Y0295
X02715Y0276
X02575Y02755
X0198Y0283
X01975Y0301
X01875
X01775
X01675
X01575
X0153Y0292
X0163
X0173
X0183
X0193
X0188Y0283
X0178
X0168
X0158
X01145Y0291
X0053875Y0298063
Y0306188
X0028875Y0301188
X0028Y0289563
X002Y02845
X0011916Y0285084
X000486Y027264
X0005Y0301
X00035Y03065
T02
X036375Y009125
X0330571Y0042906
X0324429Y0023221
X-00055Y02115
X00335Y0263437
X00415Y0256
X0070625Y025375
X036375Y0116046
X01305Y0305
T03
X0872736Y0065847
Y0085532
Y0105217
X0902264
Y0085532
Y0065847
X0932736
Y0085532
Y0105217
X0962264
Y0085532
Y0065847
X0522264
Y0085532
Y0105217
X0492736
Y0085532
Y0065847
X0462264
Y0085532
Y0105217
X0432736
Y0085532
Y0065847
X0322264
Y0085532
Y0105217
X0292736
Y0085532
Y0065847
X0262264
Y0085532
Y0105217
X0232736
Y0085532
Y0065847
X0202264
Y0085532
Y0105217
X0172736
Y0085532
Y0065847
X0142264
Y0085532
Y0105217
X0112736
Y0085532
Y0065847
X0003405Y0105827
X-0008405
Y0117638
X0003405
Y0188504
Y0200315
X-0008405
Y0188504
X0112736Y0164272
X0142264
X0172736
X0202264
X0232736
X0262264
X0292736
X0322264
X0432736
X0462264
X0492736
X0522264
X0872736
X0902264
X0932736
X0962264
T04
X05125Y0272087
Y0282087
X05225
Y0272087
X05325
Y0282087
X05425
Y0272087
X05525
Y0282087
X05625
Y0272087
X05725
Y0282087
X05825
Y0272087
X05925
Y0282087
X05025
X04925
X04825
X04725
Y0272087
X04825
X04925
X05025
T05
X099128Y-002437
X1011279
Y000563
X099128
Y0015
Y0045
X1002224Y0078661
Y0098347
X1042224
Y0078661
X105128Y000563
Y-002437
X0961279
Y000563
X090128
X087128
Y0015
X085128Y000563
X0831279
Y0015
Y0045
X087128
X0842224Y0078661
Y0098347
X085128Y-002437
X087128
X090128
X0831279
X0811279
X079128
X0771279
X0751279
X073128
X0711279
X069128
X0671279
Y000563
Y0015
X069128Y000563
X0711279
Y0015
X073128Y000563
X0751279
Y0015
X0771279Y000563
X079128
Y0015
X0811279Y000563
X079128Y0045
X0751279
X0711279
X0671279
X0682224Y0078661
Y0098347
X0722224
Y0078661
X0762224
Y0098347
X0802224
Y0078661
X0642224
Y0098347
X0602224
Y0078661
X0562224
Y0098347
X0551279Y0045
Y0015
Y000563
X0571279
Y-002437
X0551279
X0521279
Y000563
X0611279
X063128
Y0015
X0651279Y000563
Y-002437
X063128
X0611279
X063128Y0045
X043128
Y0015
Y000563
X0411279
X039128
Y0015
X037128Y000563
X0351279
Y0015
Y0045
X039128Y0045
X0402224Y0078661
Y0098347
X0411279Y-002437
X039128
X037128
X0351279
X043128
X0461279
Y000563
X032128
Y-002437
X026128
Y000563
X0201279
Y-002437
X0141279
X0111279
X009128
Y000563
X0111279
Y0015
Y0045
X0082224Y0078661
Y0098347
X0042224
Y0078661
X0051279Y000563
Y-002437
X0141279Y000563
X003128
Y0015
Y0045
Y-002437
X0042224Y0118032
X0082224
Y0161732
Y0176496
X0042224
Y0161732
X0402224
Y0176496
Y0118032
X0562224
X0602224
X0642224
Y0161732
Y0176496
X0602224
Y0161732
X0562224
Y0176496
X0682224
Y0161732
X0722224
Y0176496
X0762224
Y0161732
X0802224
Y0176496
Y0118032
X0762224
X0722224
X0682224
X0842224
Y0161732
Y0176496
X1002224
Y0161732
X1042224
Y0176496
Y0118032
X1002224
M30
